<svg width="19" height="19" viewBox="0 0 19 19" fill="none" xmlns="http://www.w3.org/2000/svg">
<mask id="mask0_1005_10434" style="mask-type:alpha" maskUnits="userSpaceOnUse" x="6" y="0" width="13" height="13">
<g clip-path="url(#clip0_1005_10434)">
<path d="M18.7157 6.67502C18.6854 5.19798 18.1253 3.78102 17.1376 2.68241C16.1498 1.58381 14.8002 0.876717 13.3347 0.690027C11.8692 0.503338 10.3854 0.849482 9.15374 1.66536C7.92211 2.48125 7.02467 3.71254 6.625 5.1348C8.58781 5.19285 10.4543 5.99851 11.8428 7.38703C13.2314 8.77556 14.037 10.6421 14.0951 12.6049C15.4117 12.2649 16.5789 11.499 17.4147 10.4264C18.2504 9.35377 18.7079 8.03479 18.7157 6.67502Z" fill="black"/>
</g>
</mask>
<g mask="url(#mask0_1005_10434)">
<g clip-path="url(#clip1_1005_10434)">
<g clip-path="url(#clip2_1005_10434)">
<path d="M6.39453 0.515625H18.7086V12.8297H6.39453V0.515625Z" fill="#009393"/>
<path d="M16.6547 6.3319L12.55 10.4366L8.44531 6.3319L10.0119 3.9375H15.0881L16.6547 6.3319ZM13.0084 6.67396V6.28401C13.8293 6.32506 14.3629 6.48925 14.6023 6.69448C14.3287 6.94076 13.5762 7.11863 12.55 7.11863C11.5238 7.11863 10.7713 6.94076 10.4977 6.69448C10.7371 6.48925 11.2639 6.32506 12.0916 6.28401V6.67396H13.0084ZM10.4977 6.69448V7.03654C10.7371 7.24177 11.2639 7.40596 12.0916 7.44701V8.7263H13.0084V7.44701C13.8293 7.40596 14.3629 7.24177 14.6023 7.03654V6.35242C14.3629 6.14719 13.8361 5.983 13.0084 5.94196V5.30573H14.2603V4.62161H10.8397V5.30573H12.0916V5.94196C11.2707 5.983 10.7371 6.14719 10.4977 6.35242V6.69448Z" fill="white"/>
</g>
</g>
</g>
<g clip-path="url(#clip3_1005_10434)">
<g clip-path="url(#clip4_1005_10434)">
<g clip-path="url(#clip5_1005_10434)">
<path d="M0.234375 6.67969H12.5484V18.9937H0.234375V6.67969Z" fill="#58BE92"/>
<path d="M8.43168 10.6849C8.13067 9.9119 7.3713 9.84349 6.48196 10.0214L6.16726 8.90625L5.48315 9.10464L5.79784 10.1719L5.26423 10.336L4.94954 9.25515L4.28595 9.4467L4.60064 10.5481L4.16965 10.6849V10.6781L3.24609 10.9381L3.45133 11.6564C3.45133 11.6564 3.94389 11.5059 3.93705 11.5196C4.21069 11.4375 4.34752 11.5743 4.41593 11.7043L4.77167 12.9562L4.84008 12.9494L4.77167 12.9699L5.27791 14.7281C5.2916 14.817 5.27791 14.9675 5.08636 15.0222L4.60064 15.1591L4.69642 16.0074L5.56524 15.7542L6.05096 15.6174L6.3725 16.7325L7.04293 16.541L6.72824 15.4464L7.26185 15.289L7.57654 16.3905L8.25381 16.1989L7.93228 15.0838C9.04054 14.6939 9.75202 14.1808 9.54679 13.093C9.3826 12.2174 8.86951 11.9506 8.1854 11.9779C8.51377 11.6701 8.66428 11.2528 8.43852 10.6849H8.43168ZM8.1854 13.3462C8.418 14.1808 6.96768 14.4955 6.50932 14.6254L6.08517 13.1478C6.54353 13.0109 7.93228 12.4773 8.1854 13.3462ZM7.27553 11.3485C7.4876 12.1011 6.26988 12.361 5.88678 12.4705L5.50367 11.1228C5.88678 11.0202 7.04293 10.555 7.26869 11.3485H7.27553Z" fill="white"/>
</g>
</g>
</g>
<defs>
<clipPath id="clip0_1005_10434">
<rect width="12.3141" height="12.3141" fill="white" transform="translate(6.39453 0.515625)"/>
</clipPath>
<clipPath id="clip1_1005_10434">
<rect width="12.3141" height="12.3141" fill="white" transform="translate(6.39453 0.515625)"/>
</clipPath>
<clipPath id="clip2_1005_10434">
<rect width="12.3141" height="12.3141" fill="white" transform="translate(6.39453 0.515625)"/>
</clipPath>
<clipPath id="clip3_1005_10434">
<rect x="0.234375" y="6.67969" width="12.3141" height="12.3141" rx="6.15703" fill="white"/>
</clipPath>
<clipPath id="clip4_1005_10434">
<rect width="12.3141" height="12.3141" fill="white" transform="translate(0.234375 6.67969)"/>
</clipPath>
<clipPath id="clip5_1005_10434">
<rect width="12.3141" height="12.3141" fill="white" transform="translate(0.234375 6.67969)"/>
</clipPath>
</defs>
</svg>
