<svg width="20" height="19" viewBox="0 0 20 19" fill="none" xmlns="http://www.w3.org/2000/svg">
<mask id="mask0_1005_10428" style="mask-type:alpha" maskUnits="userSpaceOnUse" x="6" y="0" width="14" height="13">
<g clip-path="url(#clip0_1005_10428)">
<path d="M19.204 6.67502C19.1737 5.19798 18.6136 3.78102 17.6258 2.68241C16.6381 1.58381 15.2885 0.876717 13.823 0.690027C12.3575 0.503338 10.8737 0.849482 9.64202 1.66536C8.4104 2.48125 7.51295 3.71254 7.11328 5.1348C9.07609 5.19285 10.9426 5.99851 12.3311 7.38703C13.7196 8.77556 14.5253 10.6421 14.5833 12.6049C15.9 12.2649 17.0671 11.499 17.9029 10.4264C18.7387 9.35377 19.1962 8.03479 19.204 6.67502Z" fill="black"/>
</g>
</mask>
<g mask="url(#mask0_1005_10428)">
<g clip-path="url(#clip1_1005_10428)">
<g clip-path="url(#clip2_1005_10428)">
<path d="M6.87891 0.515625H19.193V12.8297H6.87891V0.515625Z" fill="#009393"/>
<path d="M17.1391 6.3319L13.0344 10.4366L8.92969 6.3319L10.4963 3.9375H15.5724L17.1391 6.3319ZM13.4927 6.67396V6.28401C14.3137 6.32506 14.8473 6.48925 15.0867 6.69448C14.8131 6.94076 14.0605 7.11863 13.0344 7.11863C12.0082 7.11863 11.2557 6.94076 10.982 6.69448C11.2215 6.48925 11.7482 6.32506 12.576 6.28401V6.67396H13.4927ZM10.982 6.69448V7.03654C11.2215 7.24177 11.7482 7.40596 12.576 7.44701V8.7263H13.4927V7.44701C14.3137 7.40596 14.8473 7.24177 15.0867 7.03654V6.35242C14.8473 6.14719 14.3205 5.983 13.4927 5.94196V5.30573H14.7447V4.62161H11.3241V5.30573H12.576V5.94196C11.7551 5.983 11.2215 6.14719 10.982 6.35242V6.69448Z" fill="white"/>
</g>
</g>
</g>
<g clip-path="url(#clip3_1005_10428)">
<g clip-path="url(#clip4_1005_10428)">
<g clip-path="url(#clip5_1005_10428)">
<path d="M0.71875 6.67969H13.0328V18.9937H0.71875V6.67969Z" fill="#F7931A"/>
<path d="M9.49823 12.1132C9.61179 11.3449 9.03029 10.9358 8.2292 10.6574L8.48916 9.62231L7.85567 9.46496L7.60323 10.4747L7.09835 10.3536L7.3549 9.33703L6.72209 9.17969L6.46213 10.2182L6.05987 10.1231V10.1197L5.18557 9.90074L5.01728 10.5766C5.01728 10.5766 5.48521 10.6861 5.47837 10.6902C5.73423 10.7559 5.77801 10.9242 5.77049 11.0562L5.47837 12.2418L5.54405 12.2637L5.47427 12.2486L5.06106 13.9062C5.03164 13.9829 4.9516 14.0998 4.77168 14.0526C4.77921 14.0636 4.31469 13.9432 4.31469 13.9432L4 14.6635L4.82299 14.8688L5.27314 14.9851L5.00975 16.0352L5.64256 16.1925L5.89842 15.1534L6.4074 15.2854L6.14744 16.3205L6.78024 16.4778L7.0402 15.4277C8.11905 15.6329 8.93178 15.5522 9.27179 14.5753C9.54612 13.7886 9.25742 13.3391 8.69029 13.0388C9.10349 12.9478 9.41477 12.6735 9.49481 12.1132H9.49823ZM8.05338 14.1402C7.85977 14.9269 6.53533 14.4987 6.10707 14.3961L6.4546 13.0025C6.88286 13.112 8.25861 13.3206 8.05338 14.1368V14.1402ZM8.24767 12.1022C8.07185 12.8158 6.967 12.4539 6.61263 12.3656L6.92733 11.1041C7.28512 11.1917 8.43375 11.36 8.24767 12.1029V12.1022Z" fill="white"/>
</g>
</g>
</g>
<defs>
<clipPath id="clip0_1005_10428">
<rect width="12.3141" height="12.3141" fill="white" transform="translate(6.87891 0.515625)"/>
</clipPath>
<clipPath id="clip1_1005_10428">
<rect width="12.3141" height="12.3141" fill="white" transform="translate(6.87891 0.515625)"/>
</clipPath>
<clipPath id="clip2_1005_10428">
<rect width="12.3141" height="12.3141" fill="white" transform="translate(6.87891 0.515625)"/>
</clipPath>
<clipPath id="clip3_1005_10428">
<rect x="0.71875" y="6.67969" width="12.3141" height="12.3141" rx="6.15703" fill="white"/>
</clipPath>
<clipPath id="clip4_1005_10428">
<rect width="12.3141" height="12.3141" fill="white" transform="translate(0.71875 6.67969)"/>
</clipPath>
<clipPath id="clip5_1005_10428">
<rect width="12.3141" height="12.3141" fill="white" transform="translate(0.71875 6.67969)"/>
</clipPath>
</defs>
</svg>
