<svg width="19" height="20" viewBox="0 0 19 20" fill="none" xmlns="http://www.w3.org/2000/svg">
<mask id="mask0_1005_10440" style="mask-type:alpha" maskUnits="userSpaceOnUse" x="6" y="0" width="13" height="13">
<g clip-path="url(#clip0_1005_10440)">
<path d="M18.5985 6.71408C18.5682 5.23704 18.0081 3.82008 17.0204 2.72147C16.0326 1.62287 14.683 0.915779 13.2175 0.72909C11.752 0.542401 10.2682 0.888544 9.03655 1.70443C7.80493 2.52031 6.90748 3.7516 6.50781 5.17386C8.47062 5.23191 10.3371 6.03757 11.7256 7.4261C13.1142 8.81462 13.9198 10.6811 13.9779 12.6439C15.2945 12.304 16.4617 11.538 17.2975 10.4654C18.1333 9.39284 18.5907 8.07385 18.5985 6.71408Z" fill="black"/>
</g>
</mask>
<g mask="url(#mask0_1005_10440)">
<g clip-path="url(#clip1_1005_10440)">
<g clip-path="url(#clip2_1005_10440)">
<path d="M6.27734 0.554688H18.5914V12.8687H6.27734V0.554688Z" fill="#009393"/>
<path d="M16.5375 6.37096L12.4328 10.4757L8.32812 6.37096L9.89475 3.97656H14.9709L16.5375 6.37096ZM12.8912 6.71302V6.32308C13.7121 6.36412 14.2457 6.52831 14.4852 6.73354C14.2115 6.97983 13.459 7.15769 12.4328 7.15769C11.4066 7.15769 10.6541 6.97983 10.3805 6.73354C10.6199 6.52831 11.1467 6.36412 11.9745 6.32308V6.71302H12.8912ZM10.3805 6.73354V7.0756C10.6199 7.28084 11.1467 7.44502 11.9745 7.48607V8.76536H12.8912V7.48607C13.7121 7.44502 14.2457 7.28084 14.4852 7.0756V6.39149C14.2457 6.18625 13.7189 6.02206 12.8912 5.98102V5.34479H14.1431V4.66068H10.7225V5.34479H11.9745V5.98102C11.1535 6.02206 10.6199 6.18625 10.3805 6.39149V6.73354Z" fill="white"/>
</g>
</g>
</g>
<g clip-path="url(#clip3_1005_10440)">
<g clip-path="url(#clip4_1005_10440)">
<g clip-path="url(#clip5_1005_10440)">
<path d="M0.117188 6.71875H12.4312V19.0328H0.117188V6.71875Z" fill="#C3A634"/>
<path d="M4.93523 8.31084L4.82577 8.23559C4.821 8.23049 4.815 8.2267 4.80835 8.22456C4.8017 8.22243 4.79461 8.22203 4.78776 8.2234C4.78091 8.22477 4.77452 8.22786 4.7692 8.23239C4.76388 8.23692 4.75981 8.24273 4.75736 8.24927V8.27664L4.77788 8.3861L4.7642 8.81709C4.7642 8.83077 4.7642 8.83761 4.75052 8.84445L4.73684 8.85814C4.69688 9.00605 4.65811 9.15428 4.62054 9.30281C4.61333 9.33841 4.59681 9.37146 4.57265 9.39859L4.47687 9.5012C4.36057 9.62434 4.37426 9.64487 4.52476 9.56962C4.64106 9.5012 4.7642 9.42595 4.88734 9.33018C4.92839 9.30281 4.9968 9.29597 5.09258 9.30281C5.10821 9.30472 5.12271 9.31197 5.13362 9.32333L5.26361 9.42595C5.27729 9.42595 5.29097 9.44648 5.29097 9.46016C5.29781 9.53541 5.29097 9.61066 5.23624 9.66539C5.13625 9.77571 5.08238 9.92017 5.08574 10.069C5.08574 10.0895 5.0789 10.1032 5.05837 10.1169C4.94891 10.1785 4.94207 10.3016 4.85314 10.3906L4.71631 10.4932L4.70263 10.2058C4.70238 10.1878 4.695 10.1706 4.68211 10.158C4.67507 10.1507 4.66651 10.1451 4.65705 10.1416C4.64758 10.138 4.63745 10.1366 4.62738 10.1374C4.59317 10.1374 4.55897 10.158 4.5316 10.1922C4.44951 10.2879 4.35373 10.3563 4.23059 10.4042C4.14166 10.4248 4.07325 10.4932 4.03904 10.6232C4.0195 10.6689 3.99167 10.7107 3.95695 10.7463C3.97063 10.5479 3.88169 10.459 3.6833 10.4726C3.64225 10.4863 3.58068 10.5205 3.49175 10.6026C3.47913 10.6107 3.46951 10.6227 3.46438 10.6368C3.45439 10.6938 3.43041 10.7473 3.39458 10.7927C3.35876 10.8381 3.31222 10.8739 3.25915 10.8968C3.2181 10.9036 3.19758 10.8968 3.20442 10.8489V10.8352C3.35493 10.5616 3.35493 10.24 3.61489 10.0211C3.70382 9.94588 3.77908 9.89799 3.84065 9.87747C4.27848 9.72696 4.51108 9.43963 4.52476 9.01548L4.54529 8.59133C4.54529 8.42714 4.57265 8.27664 4.6137 8.13982C4.62054 8.11929 4.63422 8.10561 4.65474 8.09193C4.67449 8.08394 4.69657 8.08394 4.71631 8.09193L4.83261 8.11929C4.85314 8.11929 4.85998 8.13298 4.86682 8.14666L4.93523 8.31084Z" fill="#E1B051"/>
<path d="M4.93993 8.30952L5.02203 8.4053C5.14485 8.57316 5.24813 8.75448 5.32988 8.94575C5.35724 9.00732 5.42565 9.07573 5.52827 9.15098C5.58984 9.19203 5.52827 9.21939 5.34356 9.21939C5.21375 9.11253 5.10476 8.98266 5.02203 8.83629C4.9908 8.78678 4.97202 8.73045 4.9673 8.6721C4.96131 8.57819 4.91972 8.49011 4.851 8.42582C4.84684 8.42342 4.84212 8.42216 4.83732 8.42216C4.83251 8.42216 4.82779 8.42342 4.82363 8.42582C4.81863 8.42697 4.81406 8.42951 4.81043 8.43314C4.8068 8.43677 4.80426 8.44134 4.80311 8.44635V8.49423C4.78695 8.46013 4.77988 8.42242 4.78259 8.38477L4.76206 8.27532C4.76101 8.26721 4.7624 8.25897 4.76605 8.25166C4.76971 8.24434 4.77547 8.23829 4.78259 8.23427C4.78956 8.22926 4.79794 8.22656 4.80653 8.22656C4.81512 8.22656 4.8235 8.22926 4.83047 8.23427L4.93993 8.30952Z" fill="#B87C29"/>
<path d="M8.41247 8.40546C8.36458 8.4123 8.34406 8.43967 8.34406 8.4944C8.34406 8.57649 8.39195 8.63122 8.39195 8.71331V8.85698C8.37827 8.97328 8.48088 9.08274 8.50825 9.19219C8.54929 9.33586 8.56298 9.46584 8.54245 9.58214C8.51509 9.6916 8.50141 9.8079 8.48772 9.9242C8.48772 9.99261 8.46036 10.0337 8.41931 10.0679C8.41506 10.071 8.41162 10.0752 8.40924 10.0799C8.40687 10.0847 8.40563 10.0899 8.40563 10.0952C8.40563 10.1005 8.40687 10.1058 8.40924 10.1105C8.41162 10.1153 8.41506 10.1194 8.41931 10.1226C8.48088 10.1568 8.51509 10.2047 8.53561 10.2594C8.53676 10.2644 8.5393 10.269 8.54293 10.2726C8.54656 10.2762 8.55113 10.2788 8.55614 10.2799C8.56235 10.2801 8.56845 10.2782 8.57342 10.2745C8.57839 10.2707 8.58195 10.2654 8.5835 10.2594C8.60666 10.2176 8.61845 10.1704 8.61771 10.1226C8.6358 10.1371 8.64993 10.1559 8.65875 10.1773C8.6998 10.2936 8.75453 10.4099 8.80926 10.5194C8.87767 10.6425 8.91188 10.752 8.92556 10.8341C8.9666 11.0256 8.99397 11.2103 8.99397 11.395C9.00765 11.484 9.03502 11.614 9.06238 11.6961C9.15816 11.9287 9.22657 12.1749 9.26761 12.4144V12.8933C9.26761 12.9138 9.26761 12.9275 9.2813 12.9411C9.33603 13.0096 9.34971 13.0985 9.32234 13.2011C9.3155 13.249 9.32234 13.2832 9.35655 13.3174C9.37023 13.3311 9.37707 13.3448 9.37707 13.3653C9.37707 13.4542 9.34287 13.5295 9.28814 13.591C9.24787 13.6367 9.21758 13.6903 9.1992 13.7484C9.14447 13.8989 9.03502 14.0494 8.86399 14.0905C8.84986 14.0932 8.83648 14.0989 8.82469 14.1071C8.8129 14.1154 8.80298 14.126 8.79558 14.1383C8.72716 14.2478 8.71348 14.3436 8.56982 14.3983H8.52877C8.48772 14.3641 8.44668 14.3709 8.39195 14.4051C8.42615 14.3025 8.46036 14.1999 8.50825 14.0905C8.53475 14.0375 8.56938 13.989 8.61086 13.9468C8.67928 13.8647 8.70664 13.7621 8.67928 13.6321C8.67565 13.6158 8.67808 13.5988 8.68612 13.5842C8.76137 13.4747 8.80242 13.3653 8.89135 13.2627C8.96915 13.1689 9.00829 13.0491 9.00081 12.9275C8.99983 12.9242 8.99807 12.9213 8.99568 12.9189C8.9933 12.9165 8.99036 12.9148 8.98713 12.9138C8.98401 12.912 8.98047 12.911 8.97687 12.911C8.97326 12.911 8.96972 12.912 8.9666 12.9138C8.82978 13.0574 8.65875 13.1464 8.54929 13.3106C8.41247 13.5226 8.24144 13.7073 8.04305 13.8579C8.01569 13.8852 7.99516 13.9263 8.002 13.9673C8.01568 14.0699 8.002 14.1794 8.13883 14.1862C8.15935 14.1862 8.17303 14.1999 8.17303 14.2204C8.17303 14.2615 8.15935 14.2957 8.13198 14.3299C8.06832 14.4266 8.00673 14.5247 7.94727 14.6241C7.94843 14.6291 7.95096 14.6336 7.95459 14.6373C7.95822 14.6409 7.9628 14.6434 7.9678 14.6446H8.002C7.96096 14.6651 7.93359 14.6925 7.87886 14.6993C7.74204 14.713 7.65995 14.6925 7.62574 14.6446C7.69415 14.5488 7.76256 14.4736 7.83097 14.4188C7.8857 14.3641 7.91307 14.2888 7.89939 14.2068C7.89779 14.1989 7.89349 14.1919 7.88724 14.1869C7.88099 14.1819 7.87318 14.1792 7.86518 14.1794C7.8346 14.1812 7.80453 14.1881 7.77624 14.1999C7.77105 14.2029 7.76515 14.2045 7.75914 14.2045C7.75314 14.2045 7.74724 14.2029 7.74204 14.1999C7.73591 14.1969 7.73111 14.1918 7.72858 14.1855C7.72605 14.1791 7.72597 14.1721 7.72836 14.1657C7.73804 14.1208 7.74035 14.0746 7.7352 14.0289L7.74204 13.9947L7.86518 13.7894C7.86638 13.7874 7.86701 13.785 7.86701 13.7826C7.86701 13.7802 7.86638 13.7778 7.86518 13.7758C7.8639 13.7743 7.86232 13.7731 7.86055 13.7723C7.85878 13.7715 7.85686 13.7711 7.85492 13.7711C7.85298 13.7711 7.85106 13.7715 7.84929 13.7723C7.84752 13.7731 7.84594 13.7743 7.84466 13.7758C7.77011 13.8503 7.67468 13.9004 7.57101 13.9194C7.55733 13.9194 7.54365 13.9194 7.54365 13.8989L7.53681 13.8784C7.58917 13.8607 7.63623 13.8301 7.67363 13.7894C7.70099 13.7621 7.71467 13.721 7.71467 13.6663C7.71467 13.5295 7.91307 13.3721 8.002 13.2832C8.01559 13.2701 8.0258 13.254 8.03176 13.2361C8.03772 13.2182 8.03925 13.1992 8.03621 13.1806C8.02137 13.1013 8.00996 13.0214 8.002 12.9411C8.002 12.9138 8.002 12.8933 8.03621 12.8796H8.05673L8.07041 12.8864L8.09094 12.9069C8.10462 12.9206 8.1183 12.9138 8.13198 12.9001L8.20724 12.7633V12.7427C8.19464 12.6735 8.20067 12.6022 8.22471 12.5361C8.24875 12.47 8.28994 12.4114 8.34406 12.3665C8.3776 12.3259 8.39683 12.2754 8.39879 12.2228C8.39879 12.2091 8.39879 12.1955 8.37827 12.1818L8.30985 12.1407C8.30273 12.1367 8.29698 12.1307 8.29332 12.1233C8.28966 12.116 8.28827 12.1078 8.28933 12.0997C8.29482 12.0351 8.31855 11.9734 8.35774 11.9218C8.37142 11.915 8.37142 11.9013 8.35774 11.8944C8.30985 11.8534 8.26881 11.7576 8.3167 11.6961C8.3274 11.6795 8.3344 11.6608 8.33722 11.6413C8.33722 11.6276 8.33722 11.614 8.32354 11.6071C8.25513 11.5455 8.25513 11.484 8.28933 11.4087V11.3745L8.17987 11.2582C8.17196 11.2512 8.16705 11.2414 8.16619 11.2309C8.16619 11.1966 8.16619 11.1624 8.13883 11.1419C8.13638 11.139 8.13316 11.1368 8.12954 11.1356C8.12591 11.1344 8.12202 11.1342 8.1183 11.1351H8.11146L8.10462 11.1488C8.08847 11.1854 8.06778 11.2199 8.04305 11.2514L8.02937 11.2582C8.02253 11.2582 8.01569 11.2582 8.01569 11.2445L8.04305 11.1351C8.04305 11.1146 8.03621 11.1077 8.01569 11.1077L7.8515 11.1009H7.83782C7.83488 11.1033 7.83268 11.1065 7.83147 11.1102C7.83026 11.1138 7.83009 11.1177 7.83097 11.1214V11.1282L7.89939 11.2172V11.2377L7.89254 11.2445H7.82413C7.75887 11.2151 7.69271 11.1877 7.62574 11.1624L7.51628 11.1693C7.49576 11.1693 7.48208 11.1624 7.47523 11.1419L7.46839 11.1214C7.46654 11.1131 7.46167 11.1058 7.45471 11.1009H7.42735C7.29052 11.1214 7.14002 11.1282 6.98951 11.1077C6.976 11.106 6.96227 11.1083 6.95008 11.1144C6.93789 11.1205 6.9278 11.1301 6.9211 11.1419C6.83303 11.3141 6.70945 11.4657 6.55852 11.5866C6.51063 11.6208 6.4559 11.6413 6.39433 11.655C6.37787 11.6626 6.36371 11.6744 6.35329 11.6892C6.26435 11.785 6.18226 11.7576 6.05912 11.7576C5.92229 11.7576 5.79915 11.7576 5.66917 11.7439C5.64262 11.7257 5.61216 11.714 5.58024 11.7097C5.5734 11.7097 5.56656 11.7097 5.55971 11.6961L5.54603 11.6755C5.53415 11.5519 5.49439 11.4326 5.42973 11.3266C5.42625 11.3206 5.42128 11.3155 5.41529 11.3119C5.40931 11.3083 5.4025 11.3063 5.39553 11.3061C5.38782 11.307 5.38052 11.31 5.37447 11.3148C5.36842 11.3197 5.36386 11.3261 5.36132 11.3335L5.27923 11.5319L5.2587 11.5524C5.25067 11.558 5.24112 11.561 5.23134 11.561C5.22155 11.561 5.212 11.558 5.20397 11.5524C5.19612 11.5487 5.18942 11.5429 5.1846 11.5357C5.17978 11.5284 5.17702 11.52 5.17661 11.5113L5.16293 11.3882C5.16076 11.3672 5.15616 11.3466 5.14925 11.3266L5.10136 11.2103C5.09873 11.2059 5.09741 11.2008 5.09754 11.1957C5.09768 11.1905 5.09927 11.1855 5.10213 11.1812C5.10499 11.1769 5.109 11.1735 5.11371 11.1714C5.11841 11.1693 5.12362 11.1686 5.12872 11.1693H5.15609C5.16977 11.1693 5.18345 11.1693 5.18345 11.1488L5.29291 10.9162C5.30922 10.8894 5.31785 10.8586 5.31785 10.8272C5.31785 10.7959 5.30922 10.7651 5.29291 10.7383C5.27923 10.7246 5.27239 10.7246 5.2587 10.7383C5.14925 10.8204 5.06715 10.9162 4.99874 11.0051C4.97138 11.0325 4.95769 11.0325 4.95085 10.9914C4.95085 10.9846 4.95085 10.9709 4.93717 10.9641C4.93033 10.9572 4.91665 10.9504 4.90296 10.9641C4.76614 11.0256 4.66352 11.1009 4.59511 11.1898C4.5657 11.2315 4.5218 11.2608 4.47197 11.2719C4.45145 11.2719 4.44461 11.2719 4.45145 11.2514L4.51302 11.1146C4.54038 11.0461 4.58143 10.9777 4.62248 10.923C4.643 10.8888 4.63616 10.8546 4.60195 10.8272H4.56775L4.39672 10.9777C4.39672 10.9641 4.40356 10.9504 4.41724 10.9435C4.48565 10.8751 4.53354 10.793 4.56775 10.6836C4.60195 10.6836 4.62248 10.6836 4.62932 10.6562C4.643 10.5878 4.67037 10.5399 4.70457 10.492L4.84139 10.3894C4.93717 10.3005 4.94401 10.1773 5.05347 10.1157C5.06186 10.1109 5.06882 10.1039 5.07363 10.0955C5.07843 10.0871 5.08092 10.0776 5.08083 10.0679C5.08083 9.91051 5.13556 9.78053 5.23134 9.67107C5.28607 9.6095 5.29975 9.53425 5.28607 9.46584C5.287 9.45601 5.28487 9.44613 5.27997 9.43756C5.27507 9.42899 5.26765 9.42214 5.2587 9.41795C5.21034 9.3935 5.1664 9.36113 5.12872 9.32218C5.11781 9.31081 5.10331 9.30356 5.08768 9.30165C4.9919 9.28797 4.92349 9.30165 4.88244 9.32902C4.7593 9.42479 4.63616 9.50005 4.51986 9.56162C4.36936 9.64371 4.35567 9.63003 4.47197 9.4932L4.56775 9.39743C4.59439 9.3711 4.61332 9.33797 4.62248 9.30165C4.65778 9.15314 4.69426 9.00491 4.73194 8.85698L4.74562 8.8433C4.75353 8.83628 4.75844 8.82647 4.7593 8.81593L4.76614 8.38494C4.76614 8.42599 4.77298 8.46703 4.78666 8.4944C4.80719 8.54229 4.83455 8.56965 4.86192 8.59017C4.87286 8.59295 4.88268 8.59904 4.89003 8.60761C4.89738 8.61618 4.9019 8.62682 4.90296 8.63806C4.90256 8.64674 4.89979 8.65515 4.89497 8.66238C4.89015 8.66961 4.88346 8.67539 4.8756 8.67911C4.77298 8.72015 4.78666 8.83645 4.84139 8.90487C4.89612 8.96644 4.93033 9.03485 4.94401 9.1101C4.94401 9.13746 4.95769 9.15799 4.98506 9.16483C5.1082 9.23324 5.23134 9.24692 5.34764 9.21272C5.53235 9.21272 5.59392 9.19219 5.53235 9.14431C5.77179 9.16483 6.01123 9.19904 6.22331 9.24692L6.42854 9.27429C6.55852 9.27429 6.67482 9.30165 6.8048 9.31533C6.93478 9.32902 7.06477 9.35638 7.18107 9.29481C7.24948 9.26061 7.30421 9.21956 7.34525 9.15799C7.43419 9.15799 7.5026 9.13746 7.55049 9.08958C7.59463 9.05396 7.63375 9.01254 7.66679 8.96644C7.67337 8.95508 7.6828 8.94565 7.69415 8.93907C7.79939 8.89534 7.88302 8.81171 7.92675 8.70647C7.95411 8.63122 7.94043 8.54913 7.94043 8.47387L7.96096 8.43283C8.06357 8.31653 8.30301 8.34389 8.41931 8.39862L8.41247 8.40546Z" fill="#C89539"/>
<path d="M8.41304 8.39844C8.50198 8.44633 8.57039 8.53526 8.60459 8.66524C8.70983 8.96813 8.74263 9.29147 8.70037 9.60932C8.65967 9.82332 8.62091 10.0377 8.58407 10.2524C8.58252 10.2584 8.57896 10.2637 8.57399 10.2675C8.56902 10.2712 8.56292 10.2731 8.55671 10.2729L8.54302 10.2661L8.53618 10.2524C8.51663 10.1934 8.47493 10.1444 8.41988 10.1156C8.41322 10.1113 8.40822 10.105 8.40573 10.0975C8.40324 10.09 8.4034 10.0819 8.4062 10.0745L8.41988 10.0608C8.46093 10.0266 8.4883 9.97874 8.4883 9.92401C8.50198 9.80087 8.51566 9.68457 8.54302 9.57511C8.56355 9.45881 8.54987 9.32883 8.50882 9.18517C8.48145 9.07571 8.372 8.96625 8.38568 8.84995L8.39252 8.70629C8.39252 8.6242 8.35147 8.56947 8.34463 8.48737C8.34463 8.43264 8.36515 8.40528 8.41304 8.39844ZM5.34137 9.21253C5.21884 9.2437 5.08902 9.22655 4.97879 9.16465C4.96811 9.15942 4.95882 9.15173 4.95169 9.14222C4.94455 9.1327 4.93977 9.12163 4.93774 9.10992C4.9245 9.03289 4.8888 8.96149 4.83512 8.90468C4.7804 8.83627 4.76671 8.71997 4.86933 8.67892C4.87719 8.67521 4.88388 8.66943 4.8887 8.6622C4.89353 8.65496 4.89629 8.64656 4.89669 8.63788C4.89763 8.62805 4.8955 8.61817 4.8906 8.6096C4.8857 8.60103 4.87827 8.59418 4.86933 8.58999C4.83591 8.56716 4.81167 8.53323 4.80092 8.49421V8.44633C4.80072 8.44011 4.80265 8.43402 4.80638 8.42904C4.81011 8.42407 4.81542 8.42051 4.82144 8.41896C4.82619 8.41751 4.83125 8.41738 4.83607 8.41858C4.84089 8.41979 4.8453 8.42228 4.84881 8.4258C4.91722 8.49421 4.95827 8.57631 4.96511 8.67208C4.97195 8.72681 4.98563 8.78154 5.01984 8.83627C5.10325 8.98019 5.21221 9.1077 5.34137 9.21253Z" fill="#85511C"/>
<path d="M7.5063 9.34406L7.53367 9.33722C7.58839 9.33038 7.60208 9.3509 7.59524 9.39879C7.59524 9.41247 7.58155 9.41931 7.56787 9.433C7.50857 9.47512 7.45982 9.53039 7.4254 9.59447C7.39099 9.65855 7.37185 9.72972 7.36948 9.80242C7.36948 9.92556 7.45157 9.98713 7.44473 10.1034V10.1171C7.44093 10.1224 7.43569 10.1265 7.42963 10.129C7.42357 10.1314 7.41694 10.132 7.41052 10.1308C7.37632 10.1308 7.3558 10.1103 7.34211 10.0829C7.32611 10.019 7.29826 9.95867 7.26002 9.90504C7.25408 9.89321 7.24448 9.88361 7.23265 9.87767C7.21202 9.8728 7.19299 9.86269 7.17741 9.8483C7.16182 9.83392 7.15022 9.81576 7.14372 9.79558C7.09179 9.74487 7.03934 9.6947 6.98637 9.64507C6.97363 9.63551 6.96328 9.62312 6.95616 9.60887C6.94904 9.59462 6.94533 9.57891 6.94533 9.56298C6.94513 9.55676 6.94706 9.55067 6.95079 9.54569C6.95452 9.54072 6.95983 9.53716 6.96585 9.53561C6.97001 9.53321 6.97473 9.53195 6.97953 9.53195C6.98434 9.53195 6.98905 9.53321 6.99321 9.53561C7.05478 9.57666 7.11635 9.59034 7.17793 9.5835C7.19845 9.5835 7.21213 9.5835 7.21897 9.56982L7.49946 9.34406H7.5063Z" fill="#B87C29"/>
<path d="M8.24178 9.80149C8.13916 9.9862 7.9955 10.1846 7.81079 10.2804C7.80678 10.2828 7.80232 10.2843 7.7977 10.2849C7.79307 10.2855 7.78837 10.2852 7.78389 10.2839C7.7794 10.2826 7.77523 10.2804 7.77162 10.2775C7.76801 10.2745 7.76504 10.2708 7.7629 10.2667L7.72869 10.2188C7.72275 10.2099 7.71457 10.2026 7.70497 10.1978C7.69537 10.193 7.68468 10.1908 7.67396 10.1914L7.52346 10.212C7.5175 10.2112 7.51183 10.209 7.50703 10.2054C7.50222 10.2018 7.49845 10.197 7.49609 10.1914V10.1572C7.58503 10.0751 7.6808 9.97936 7.72185 9.8699C7.74237 9.80149 7.78342 9.74676 7.84499 9.70572L7.85183 9.69203V9.67835C7.85068 9.67335 7.84815 9.66877 7.84452 9.66515C7.84089 9.66152 7.83631 9.65898 7.83131 9.65783H7.74922L7.72185 9.64415C7.71393 9.63713 7.70903 9.62733 7.70817 9.61678C7.70817 9.59626 7.72185 9.57574 7.74237 9.55521C7.77707 9.52869 7.80914 9.49891 7.83815 9.46628C7.86552 9.43207 7.90656 9.42523 7.94761 9.43207C8.03654 9.44575 8.13232 9.45259 8.2281 9.44575C8.2429 9.44575 8.2573 9.45055 8.26914 9.45944C8.28177 9.46753 8.29138 9.47955 8.29651 9.49364C8.31703 9.54153 8.31703 9.58942 8.31019 9.63046C8.29709 9.69089 8.27396 9.7487 8.24178 9.80149Z" fill="#85511C"/>
<path d="M5.19864 10.2589C5.24653 10.1084 5.31494 9.94424 5.40388 9.76637C5.41756 9.75268 5.43124 9.74584 5.45177 9.75268C5.47913 9.76637 5.49281 9.78689 5.48597 9.8211C5.47913 9.93739 5.43124 10.0605 5.34915 10.1768C5.28074 10.2931 5.28074 10.4163 5.24653 10.5463C5.24417 10.5518 5.2404 10.5566 5.2356 10.5602C5.2308 10.5638 5.22513 10.5661 5.21917 10.5668C5.19864 10.5668 5.18496 10.5668 5.17812 10.5531C5.16018 10.5196 5.15302 10.4814 5.1576 10.4436C5.1576 10.3821 5.17812 10.3205 5.19864 10.2589Z" fill="#B87C29"/>
<path d="M6.01038 10.7826L5.79147 10.9195C5.7299 10.9468 5.67517 10.9468 5.62728 10.9195C5.54519 10.8852 5.53834 10.7758 5.52466 10.6937C5.51782 10.6595 5.51782 10.6253 5.52466 10.5979L5.56571 10.4337C5.57939 10.2969 5.70937 10.2011 5.83251 10.1396C5.94197 10.0848 6.05143 10.1054 6.15405 10.1943C6.29771 10.3311 6.23614 10.509 6.20194 10.6732C6.20194 10.6869 6.18825 10.7005 6.16773 10.7005C6.10808 10.7111 6.05313 10.7397 6.01038 10.7826Z" fill="#E1B051"/>
<path d="M4.71325 10.4966C4.67866 10.5464 4.65318 10.602 4.638 10.6608C4.638 10.6813 4.61064 10.695 4.57643 10.6881C4.53539 10.5103 4.41909 10.4145 4.23438 10.4145C4.35752 10.3598 4.45329 10.2914 4.53539 10.1956C4.56275 10.1614 4.59696 10.1409 4.63116 10.1409C4.64542 10.1397 4.6597 10.143 4.67197 10.1504C4.68424 10.1577 4.6939 10.1688 4.69957 10.1819C4.70373 10.1904 4.70606 10.1998 4.70641 10.2093L4.71325 10.4966ZM8.33906 10.6745C8.428 10.6676 8.47588 10.6061 8.50325 10.5103C8.50368 10.505 8.50613 10.5001 8.51009 10.4966C8.51321 10.4948 8.51675 10.4938 8.52035 10.4938C8.52395 10.4938 8.52749 10.4948 8.53061 10.4966H8.5443L8.57166 10.524V10.5513C8.54848 10.7328 8.53933 10.9158 8.5443 11.0986C8.5443 11.1397 8.52377 11.1465 8.49641 11.1191C8.4622 11.0918 8.44168 11.0302 8.428 10.9413C8.4267 10.9255 8.41935 10.9107 8.40747 10.9002C8.33222 10.8387 8.25013 10.8181 8.2296 10.7087C8.21465 10.631 8.21669 10.5511 8.23559 10.4743C8.25448 10.3976 8.28978 10.3258 8.33906 10.264L8.35274 10.2503H8.36643V10.264L8.32538 10.394C8.31854 10.4077 8.32538 10.4282 8.33906 10.4419C8.37327 10.4692 8.38695 10.4966 8.38011 10.5376C8.37641 10.5543 8.36665 10.5689 8.35274 10.5787C8.33302 10.5904 8.31655 10.6069 8.30486 10.6266C8.30206 10.6339 8.30189 10.6421 8.30438 10.6495C8.30688 10.657 8.31188 10.6634 8.31854 10.6676H8.33906V10.6745Z" fill="#B87C29"/>
<path d="M4.23452 10.4141C4.41923 10.4141 4.53553 10.5098 4.57658 10.6877C4.5474 10.7849 4.49585 10.874 4.42607 10.9477L4.24136 10.9887C4.11138 10.8656 4.09086 10.7151 4.18663 10.5577V10.5509H4.16611C4.14002 10.5882 4.1076 10.6206 4.07033 10.6467C4.04981 10.6467 4.04297 10.6467 4.04297 10.633C4.07717 10.503 4.14559 10.4277 4.23452 10.4141Z" fill="#0B0802"/>
<path d="M3.96285 10.7463L3.95601 10.7736C3.93103 10.8019 3.90084 10.8251 3.86708 10.842C3.84777 10.8478 3.83077 10.8595 3.81849 10.8754C3.8062 10.8914 3.79927 10.9108 3.79867 10.931C3.79867 10.9994 3.79183 11.0678 3.7713 11.1294C3.74394 11.2457 3.78498 11.3209 3.89444 11.3483C3.94917 11.3551 3.99022 11.3483 4.01758 11.3004C4.07448 11.2279 4.13619 11.1593 4.20229 11.0952L4.24334 11.0815C4.28439 11.0815 4.28439 11.1088 4.24334 11.1636C4.17287 11.2254 4.10218 11.287 4.03126 11.3483C3.99936 11.3734 3.97165 11.4034 3.94917 11.4372L3.88076 11.5398L3.69605 11.6082V11.5946C3.69605 11.5877 3.70289 11.5809 3.71657 11.5809C3.71657 11.5809 3.73025 11.5809 3.7371 11.5672V11.5603C3.69348 11.4047 3.68184 11.2418 3.70289 11.0815L3.74394 10.931C3.76446 10.8694 3.7713 10.8147 3.7713 10.7531C3.77329 10.7021 3.75891 10.6517 3.73025 10.6094C3.72568 10.6028 3.71952 10.5975 3.71235 10.5939C3.70518 10.5903 3.69722 10.5886 3.68921 10.5889C3.61396 10.5889 3.56607 10.6231 3.54554 10.6778C3.52461 10.7327 3.49454 10.7836 3.45661 10.8283C3.41888 10.8783 3.3889 10.9336 3.36767 10.9925C3.32663 11.102 3.2719 11.2046 3.21033 11.2935C3.21033 11.3072 3.18296 11.3278 3.14876 11.362C3.13656 11.3746 3.1272 11.3896 3.1213 11.4061C3.11541 11.4227 3.1131 11.4403 3.11455 11.4577C3.11455 11.4714 3.11455 11.4851 3.10087 11.4988C3.08109 11.524 3.07134 11.5557 3.0735 11.5877C3.0735 11.6014 3.08035 11.6082 3.10087 11.6014H3.13507C3.21862 11.6515 3.3083 11.6906 3.40188 11.7177C3.40613 11.7209 3.40958 11.725 3.41195 11.7298C3.41433 11.7345 3.41556 11.7397 3.41556 11.7451V11.7587C3.35836 11.8803 3.33474 12.0149 3.34715 12.1487C3.36083 12.2992 3.39504 12.4223 3.44977 12.525C3.45661 12.5386 3.47029 12.5523 3.49081 12.5592C3.51134 12.566 3.51818 12.5592 3.51818 12.5455L3.52502 12.4976L3.64132 12.6823C3.53186 12.8602 3.6208 13.0175 3.69605 13.1749C3.70165 13.1869 3.70396 13.2002 3.70276 13.2134C3.70156 13.2266 3.69688 13.2393 3.68921 13.2501C3.62342 13.3404 3.53651 13.4132 3.43609 13.4622C3.35399 13.5032 3.27874 13.4622 3.23085 13.4006L3.19665 13.3801H3.14876C3.10771 13.4006 3.08035 13.3938 3.05982 13.3459C3.00509 13.168 2.95036 12.9833 2.90248 12.7849C2.81615 12.4305 2.84002 12.0582 2.97089 11.7177C3.01193 11.6288 3.0393 11.533 3.05298 11.4304C3.0821 11.2886 3.12803 11.1508 3.1898 11.0199C3.20117 11.009 3.20842 10.9945 3.21033 10.9789C3.21033 10.9515 3.22401 10.9241 3.26506 10.8968C3.37452 10.8489 3.44977 10.7599 3.47029 10.6368C3.47542 10.6227 3.48503 10.6107 3.49766 10.6026C3.58659 10.5205 3.64816 10.4863 3.69605 10.4794C3.8876 10.4589 3.96969 10.5479 3.96969 10.7463H3.96285Z" fill="#EFE2AD"/>
<path d="M4.2457 10.9984C4.04047 10.971 3.98574 10.8547 4.06783 10.6427C4.10888 10.6221 4.13624 10.5879 4.16361 10.5469H4.17729V10.5606C4.0952 10.7179 4.10888 10.8684 4.2457 10.9984Z" fill="#FCF9F5"/>
<path d="M3.69286 11.6131C3.67378 11.6235 3.65918 11.6405 3.65181 11.661C3.61733 11.6916 3.59339 11.7323 3.5834 11.7773C3.59024 11.7089 3.54919 11.7089 3.47394 11.7773C3.37132 11.8594 3.33712 12.0304 3.33712 12.1535C3.32089 12.013 3.3446 11.8707 3.40553 11.7431C3.40553 11.7357 3.40313 11.7285 3.39869 11.7225L3.38501 11.7157C3.29647 11.6897 3.21147 11.6529 3.13188 11.6062C3.12668 11.6032 3.12078 11.6017 3.11478 11.6017C3.10878 11.6017 3.10288 11.6032 3.09768 11.6062C3.07715 11.6062 3.07031 11.6062 3.07031 11.5926C3.07031 11.5584 3.07715 11.5241 3.09768 11.5036C3.10705 11.492 3.11191 11.4775 3.11136 11.4626C3.11136 11.4215 3.12504 11.3942 3.14556 11.3668L3.21398 11.2984C3.26871 11.2095 3.32343 11.1068 3.36448 10.9974C3.39185 10.929 3.41921 10.8811 3.45342 10.8332C3.49446 10.7921 3.52183 10.7374 3.54235 10.6827C3.56287 10.628 3.61076 10.5938 3.67917 10.5938C3.6997 10.5938 3.71338 10.5938 3.72706 10.6143C3.75443 10.6553 3.76811 10.7032 3.76811 10.7511C3.76811 10.8195 3.76127 10.8742 3.74074 10.9358L3.6997 11.0863C3.67771 11.2489 3.68935 11.4142 3.7339 11.572C3.72706 11.5857 3.72022 11.5857 3.71338 11.5857C3.6997 11.5857 3.69286 11.5857 3.69286 11.5994V11.6131Z" fill="#FAF2CD"/>
<path d="M4.04206 10.6172C4.04206 10.6309 4.0489 10.6377 4.06942 10.6377C3.98733 10.8429 4.04206 10.9661 4.24729 10.9866L4.42516 10.9456C4.41508 10.9547 4.40793 10.9666 4.40464 10.9798C4.36147 11.0297 4.30425 11.0655 4.24045 11.0824L4.19941 11.0892C4.03522 11.0892 3.95997 10.9114 3.95312 10.7745L3.95997 10.7472C4.00101 10.7061 4.02838 10.6651 4.04206 10.624V10.6172Z" fill="#5B4F40"/>
<path d="M4.41261 10.6354C4.39892 10.6559 4.39892 10.6833 4.41261 10.6901C4.42629 10.7038 4.45365 10.6901 4.46733 10.6696C4.48786 10.6491 4.48102 10.6286 4.46733 10.6149C4.45365 10.6012 4.42629 10.6149 4.41261 10.6354Z" fill="#FCF9F5"/>
<path d="M5.66784 11.7435C5.63364 11.7435 5.61996 11.7504 5.61996 11.7846C5.61996 11.8804 5.61996 11.9693 5.59259 12.0514C5.57969 12.0959 5.57278 12.1419 5.57207 12.1882C5.57207 12.284 5.53786 12.3524 5.58575 12.4619V12.6945C5.6637 12.8025 5.74585 12.9075 5.83203 13.0092C5.92781 13.1049 5.93465 13.2076 5.85255 13.3033C5.78414 13.3854 5.73626 13.4607 5.6268 13.4812C5.46945 13.5154 5.33263 13.5701 5.20949 13.6454C5.12055 13.707 5.01109 13.7275 4.91532 13.7617C4.84691 13.7822 4.84691 13.8096 4.91532 13.8369L5.13423 13.9327C5.33947 14.0216 5.5447 14.0285 5.77046 13.9874C5.91412 13.9601 5.9757 13.8096 6.05095 13.7001C6.11936 13.5975 6.26302 13.5975 6.36564 13.5086C6.43405 13.4401 6.52983 13.3786 6.63929 13.3238C6.65319 13.314 6.66295 13.2994 6.66665 13.2828C6.69401 13.2144 6.72138 13.1323 6.79663 13.0844C6.9745 12.975 7.13869 12.8929 7.30972 12.8381C7.46022 12.7834 7.5902 12.7013 7.74071 12.6329C7.74472 12.6305 7.74917 12.629 7.7538 12.6284C7.75842 12.6278 7.76312 12.6281 7.76761 12.6294C7.77209 12.6307 7.77627 12.6329 7.77988 12.6358C7.78349 12.6388 7.78646 12.6424 7.7886 12.6466C7.80228 12.6671 7.80228 12.6808 7.7886 12.7013C7.71335 12.8244 7.65178 12.9613 7.52863 13.057L7.18658 13.3307C7.11817 13.3991 7.11817 13.5222 7.10448 13.6043C7.09764 13.6933 7.04291 13.7685 6.95398 13.8369L6.68033 14.008C6.6256 14.0353 6.61876 14.0764 6.66665 14.1106C6.67928 14.1235 6.69649 14.1308 6.71454 14.1311C6.73165 14.1295 6.74875 14.1344 6.76243 14.1448L6.89925 14.2611V14.2748C6.90165 14.2789 6.90292 14.2836 6.90292 14.2885C6.90292 14.2933 6.90165 14.298 6.89925 14.3021L6.88557 14.309C6.71454 14.3432 6.54351 14.3774 6.4751 14.5553C6.472 14.5654 6.47233 14.5762 6.47604 14.5861C6.47975 14.596 6.48664 14.6044 6.49562 14.61L6.51614 14.6237C6.54351 14.6237 6.57087 14.6237 6.60508 14.61C6.72822 14.5416 6.87873 14.4937 7.01555 14.5416C7.09764 14.5758 7.17974 14.5963 7.26183 14.5963C7.34392 14.5963 7.41918 14.6237 7.48759 14.6784C7.50127 14.6852 7.51495 14.6921 7.53548 14.6852C7.56917 14.683 7.60085 14.6684 7.62441 14.6442C7.65862 14.6921 7.74755 14.7126 7.87753 14.6989C7.92542 14.6989 7.95963 14.6647 8.00067 14.6442L8.39746 14.4048C8.44535 14.3705 8.4864 14.3637 8.53428 14.3979H8.56849C8.70531 14.35 8.73268 14.2474 8.80109 14.1379C8.8085 14.1256 8.81842 14.115 8.8302 14.1067C8.84199 14.0985 8.85538 14.0928 8.8695 14.0901C9.03369 14.049 9.14315 13.8985 9.19103 13.748C9.21144 13.6894 9.24409 13.6357 9.28681 13.5907C9.34154 13.5291 9.3689 13.4538 9.37574 13.3649C9.37574 13.3444 9.37574 13.3307 9.35522 13.317C9.32101 13.2828 9.31417 13.2486 9.32101 13.2007C9.33483 13.1572 9.33831 13.111 9.33119 13.0659C9.32406 13.0208 9.30652 12.9779 9.27997 12.9407C9.2686 12.9298 9.26136 12.9153 9.25944 12.8997L9.26629 12.414L9.40311 12.8244C9.58223 13.2087 9.63492 13.6398 9.55361 14.0559C9.52625 13.9874 9.49204 14.0011 9.45784 14.1106C9.42363 14.2269 9.43047 14.3158 9.3689 14.4253C9.32675 14.5105 9.30342 14.6039 9.30049 14.6989L9.25944 15.1094C9.25944 15.1778 9.2184 15.2325 9.14999 15.2667C9.1348 15.2736 9.12264 15.2858 9.11578 15.3009C9.08842 15.3557 9.08157 15.4036 9.03369 15.4514C8.94475 15.5335 8.74636 15.7114 8.71215 15.8345C8.69847 15.903 8.64374 15.9303 8.58217 15.9577C8.62322 15.9098 8.65058 15.8551 8.66426 15.7935C8.67795 15.6977 8.69163 15.643 8.70531 15.6225L8.80793 15.4172C8.93791 15.212 8.89002 14.9657 8.86266 14.7331C8.8598 14.7198 8.85258 14.7077 8.84213 14.6989C8.83122 14.6876 8.81672 14.6803 8.80109 14.6784C8.69835 14.6697 8.59505 14.6862 8.50008 14.7263C8.32905 14.7947 8.18538 14.8494 8.03488 14.9862C7.92542 15.082 7.85701 15.2257 7.74071 15.3009C7.60389 15.3899 7.41918 15.4857 7.17974 15.5746C6.93345 15.6704 6.68717 15.7661 6.44089 15.8482L6.23566 15.944C5.99622 16.0808 5.88676 16.3271 5.61311 16.3887C5.53102 16.4092 5.44893 16.4434 5.37367 16.4981C5.27106 16.5666 5.14792 16.5871 5.03162 16.6076C4.89479 16.635 4.77165 16.6897 4.62799 16.7171L4.23804 16.5802C4.09438 16.5323 3.9644 16.4776 3.86178 16.416C3.70443 16.334 3.56761 16.245 3.45131 16.1698C3.27839 16.057 3.11787 15.9263 2.97243 15.7798C2.82193 15.6362 2.82193 15.4446 2.9177 15.2736C2.98611 15.082 3.02716 14.911 3.034 14.7536L3.07505 14.2064C3.07505 14.1585 3.10241 14.0695 3.14346 13.9327C3.19819 13.7754 3.20503 13.6112 3.16398 13.4401C3.16398 13.4196 3.16398 13.4128 3.18451 13.4059H3.21871C3.27344 13.4675 3.3487 13.5086 3.42395 13.4744C3.52764 13.4244 3.61705 13.3491 3.68391 13.2554C3.6904 13.2454 3.69441 13.234 3.6956 13.2221C3.69679 13.2102 3.69513 13.1982 3.69075 13.187C3.62234 13.0228 3.52657 12.8655 3.63602 12.6876C3.63602 12.7218 3.63602 12.756 3.62234 12.7902C3.6155 12.8244 3.62234 12.8587 3.63602 12.886L3.64971 12.9202C3.66339 12.9955 3.71812 13.057 3.78653 13.0981C3.88915 13.1528 3.99176 13.1939 4.10122 13.2281C4.197 13.2554 4.29277 13.2212 4.37487 13.1186C4.44328 13.1186 4.55958 13.146 4.71692 13.1939C4.80586 13.2212 4.88795 13.1939 4.94952 13.1323C5.1956 13.1108 5.43503 13.0411 5.65416 12.9271V12.8997C5.65505 12.896 5.65487 12.8921 5.65366 12.8885C5.65246 12.8848 5.65026 12.8816 5.64732 12.8792C5.6442 12.8774 5.64066 12.8764 5.63706 12.8764C5.63346 12.8764 5.62992 12.8774 5.6268 12.8792C5.48313 12.9271 5.32579 12.9544 5.1616 12.9613C5.10003 12.9613 5.0453 12.9818 4.98373 13.0023C4.88111 13.0365 4.68272 12.9476 4.59378 12.8997C4.58694 12.8313 4.60747 12.7902 4.6622 12.756C4.67425 12.7473 4.6837 12.7355 4.68956 12.7218C4.70324 12.6876 4.73061 12.6739 4.76481 12.6739C4.8127 12.6808 4.88111 12.6739 4.98373 12.6534C5.05214 12.6397 5.07951 12.6124 5.07951 12.5713V12.544C5.07281 12.5344 5.06322 12.5272 5.05214 12.5234C5.03103 12.5104 5.01434 12.4914 5.00425 12.4687C4.99741 12.4619 5.00425 12.455 5.01109 12.4482H5.03846C5.05214 12.4755 5.06582 12.4892 5.09319 12.4961C5.10687 12.5029 5.12055 12.4961 5.14108 12.4824C5.18896 12.4482 5.20949 12.3866 5.20949 12.3045C5.24642 12.2436 5.30142 12.1958 5.36683 12.1677C5.38736 12.1677 5.3942 12.154 5.38736 12.1335C5.37097 12.0501 5.33326 11.9723 5.2779 11.9077C5.22317 11.8393 5.13423 11.8188 5.05898 11.7641C4.97005 11.6957 4.84691 11.7025 4.74429 11.7367C4.73745 11.7367 4.73061 11.7367 4.73061 11.7504C4.73061 11.7641 4.73061 11.7709 4.71692 11.7709C4.69271 11.7716 4.6691 11.7787 4.64851 11.7914C4.5801 11.723 4.50485 11.6683 4.40907 11.6204C4.25173 11.5246 4.05333 11.5383 3.8823 11.5383L3.95072 11.4357C3.9644 11.4015 3.99176 11.3673 4.02597 11.3468C4.09688 11.2854 4.16758 11.2239 4.23804 11.162C4.27909 11.1073 4.27909 11.08 4.23804 11.08C4.30646 11.0663 4.36118 11.0321 4.40223 10.9773L4.57326 10.8268H4.60747C4.64167 10.861 4.64851 10.8952 4.62799 10.9226C4.55949 11.0257 4.50216 11.1358 4.45696 11.251C4.45696 11.2647 4.45696 11.2715 4.47748 11.2715C4.52731 11.2604 4.57122 11.2311 4.60062 11.1894C4.66904 11.1005 4.77165 11.0252 4.90848 10.9568L4.94268 10.9637L4.95636 10.991C4.96321 11.0321 4.97689 11.0321 5.00425 11.0047C5.07266 10.9158 5.15476 10.82 5.26422 10.7311C5.2779 10.7242 5.28474 10.7242 5.29842 10.7379C5.32579 10.7995 5.33263 10.8542 5.29842 10.9158C5.25737 10.9842 5.22317 11.0663 5.18896 11.1484C5.18896 11.162 5.17528 11.1689 5.1616 11.1689H5.13423C5.12913 11.1682 5.12392 11.1689 5.11922 11.171C5.11452 11.1731 5.1105 11.1765 5.10764 11.1808C5.10478 11.1851 5.10319 11.1901 5.10306 11.1953C5.10292 11.2004 5.10424 11.2055 5.10687 11.2099L5.15476 11.3262C5.16168 11.3462 5.16627 11.3668 5.16844 11.3878L5.18212 11.5109C5.18212 11.5246 5.18896 11.5315 5.20265 11.5383C5.2081 11.5433 5.21464 11.547 5.22176 11.5491C5.22888 11.5512 5.23639 11.5516 5.24368 11.5502C5.25098 11.5489 5.25787 11.5459 5.2638 11.5415C5.26974 11.537 5.27457 11.5313 5.2779 11.5246L5.35999 11.3194C5.36348 11.3133 5.36845 11.3083 5.37443 11.3047C5.38042 11.3011 5.38722 11.2991 5.3942 11.2989C5.40117 11.2991 5.40798 11.3011 5.41396 11.3047C5.41995 11.3083 5.42492 11.3133 5.4284 11.3194C5.49681 11.4289 5.53786 11.5452 5.5447 11.6683C5.5447 11.6751 5.5447 11.682 5.55839 11.6888L5.57891 11.7025L5.66784 11.7367V11.7435Z" fill="#E0C06E"/>
<path d="M6.62579 11.1207C6.59608 11.1354 6.56315 11.1424 6.53002 11.1412C6.51633 11.1412 6.50265 11.1412 6.48897 11.1549C6.43424 11.2027 6.39319 11.2643 6.32478 11.2917C6.24137 11.331 6.14642 11.3383 6.05798 11.3122C5.97588 11.1891 5.96904 11.0728 6.03061 10.9633C6.03209 10.9591 6.03489 10.9555 6.03859 10.953C6.04229 10.9506 6.04669 10.9494 6.05114 10.9496C6.05556 10.9481 6.06039 10.9481 6.06482 10.9496C6.08534 10.977 6.11271 10.9907 6.14007 10.9907C6.17428 10.9907 6.18112 10.9838 6.16744 10.9565C6.0785 10.7512 5.86642 10.977 5.82538 11.0591C5.78433 11.1617 5.81854 11.2506 5.93484 11.3327L5.94168 11.3464V11.3806L5.91431 11.3875C5.82538 11.3669 5.6954 11.3533 5.64067 11.2712C5.61516 11.2288 5.59668 11.1826 5.58594 11.1343C5.58594 11.1138 5.58594 11.1001 5.59962 11.0864L5.79117 10.9154L6.00325 10.7786C6.16743 10.7375 6.29742 10.7581 6.39319 10.8333C6.48177 10.9094 6.55997 10.9968 6.62579 11.0933V11.1207Z" fill="#0B0802"/>
<path d="M3.9478 10.7725C3.96148 10.9093 4.03673 11.0803 4.20092 11.0872C4.13457 11.1535 4.07286 11.2244 4.01621 11.2992C3.98884 11.3403 3.9478 11.354 3.89307 11.3471C3.78361 11.3198 3.74256 11.2445 3.76993 11.1282C3.79045 11.0598 3.79729 10.9914 3.79729 10.923C3.79729 10.8819 3.82466 10.8546 3.8657 10.834C3.89946 10.8171 3.92966 10.7939 3.95464 10.7656L3.9478 10.7725Z" fill="#E1B051"/>
<path d="M6.06622 11.3146C6.0457 11.3351 6.00465 11.342 5.9294 11.3351C5.81994 11.253 5.78574 11.1641 5.83362 11.0615C5.86783 10.9794 6.07991 10.7536 6.17568 10.9589C6.18252 10.9862 6.17568 10.9999 6.14148 10.9931C6.11512 10.9909 6.09061 10.9787 6.07306 10.9589C6.07062 10.9559 6.0674 10.9537 6.06378 10.9525C6.06015 10.9513 6.05626 10.9511 6.05254 10.952C6.0481 10.9518 6.0437 10.953 6.03999 10.9554C6.03629 10.9579 6.03349 10.9615 6.03202 10.9657C5.96361 11.0752 5.97729 11.1915 6.05938 11.3146H6.06622Z" fill="#FCF9F5"/>
<path d="M8.345 12.3662C8.24794 12.349 8.14934 12.3422 8.05083 12.3457H7.75666C7.55143 12.332 7.36672 12.3594 7.182 12.4346C6.93714 12.5318 6.69738 12.6414 6.46368 12.763C6.43632 12.763 6.40896 12.763 6.38843 12.7493C6.27369 12.6929 6.14217 12.6807 6.01901 12.7151C6.00946 12.7199 5.99892 12.7224 5.98823 12.7224C5.97753 12.7224 5.96699 12.7199 5.95744 12.7151C5.91699 12.6859 5.88605 12.6455 5.86851 12.5988C5.86135 12.5815 5.84889 12.5668 5.83292 12.557C5.81694 12.5472 5.79827 12.5427 5.77957 12.5441C5.69064 12.5441 5.62907 12.5235 5.58802 12.462C5.54013 12.3525 5.57434 12.2841 5.57434 12.1883C5.57434 12.1404 5.58118 12.0926 5.59486 12.0515C5.61538 11.9694 5.62222 11.8805 5.62222 11.7779C5.62222 11.7505 5.63591 11.7368 5.67011 11.7437L6.06006 11.7573C6.1832 11.7573 6.26529 11.7847 6.35423 11.6889C6.36548 11.6766 6.37957 11.6672 6.39527 11.6616C6.45684 11.641 6.51157 11.6205 6.55946 11.5863C6.71287 11.4661 6.83882 11.3145 6.92888 11.1416C6.93508 11.1309 6.94408 11.122 6.95493 11.116C6.96577 11.11 6.97805 11.107 6.99045 11.1074C7.14096 11.128 7.28462 11.1211 7.42829 11.0938H7.45565L7.46933 11.1211V11.1416C7.48302 11.1622 7.4967 11.169 7.51722 11.169L7.62668 11.1622L7.68141 11.169L7.81823 11.2374C7.8456 11.2511 7.85928 11.2511 7.88664 11.2511C7.8906 11.2476 7.89305 11.2427 7.89348 11.2374V11.2169L7.83191 11.128V11.1074C7.83436 11.1045 7.83757 11.1023 7.8412 11.1011C7.84483 11.0999 7.84872 11.0997 7.85244 11.1006H8.01662C8.03715 11.1006 8.04399 11.1143 8.04399 11.1348L8.01662 11.2443C8.01662 11.2511 8.01662 11.2579 8.03031 11.2579H8.04399C8.06923 11.2243 8.08993 11.1875 8.10556 11.1485V11.1416C8.10932 11.1383 8.11419 11.1364 8.11924 11.1364C8.12429 11.1364 8.12916 11.1383 8.13292 11.1416H8.13977C8.16029 11.169 8.17397 11.1964 8.16713 11.2306C8.16713 11.2443 8.16713 11.2511 8.18081 11.2579L8.28343 11.3742C8.29711 11.3811 8.29711 11.3948 8.29027 11.4084C8.24922 11.4769 8.26291 11.5453 8.33132 11.6137L8.33816 11.641C8.33534 11.6606 8.32834 11.6792 8.31763 11.6958C8.26975 11.7573 8.31079 11.8531 8.35868 11.8942C8.37236 11.901 8.37236 11.9147 8.35868 11.9215C8.31949 11.9731 8.29576 12.0348 8.29027 12.0994C8.29027 12.1199 8.29027 12.1336 8.31079 12.1404L8.37921 12.1815L8.39973 12.2225C8.39973 12.2773 8.37921 12.3252 8.345 12.3662Z" fill="#FAF2CD"/>
<path d="M6.62921 11.125C6.62921 11.1455 6.61553 11.166 6.60185 11.1866C6.51291 11.2755 6.4103 11.3918 6.28716 11.4329C6.14349 11.4739 6.04772 11.4192 5.91773 11.3986C5.92535 11.3954 5.9323 11.3907 5.93826 11.385C5.95194 11.3781 5.95194 11.3644 5.9451 11.3508L5.93826 11.3371C6.00667 11.3371 6.04772 11.3371 6.0614 11.3166C6.15717 11.3439 6.24611 11.3371 6.33504 11.296C6.40346 11.2687 6.43766 11.2071 6.49239 11.1592C6.50397 11.1498 6.51855 11.145 6.53344 11.1455C6.56764 11.1455 6.60185 11.1387 6.62921 11.125ZM3.87907 11.5423C4.05694 11.5423 4.25534 11.5286 4.41268 11.6244L4.35795 11.6586C4.33059 11.727 4.28954 11.7475 4.22113 11.727C4.06204 11.6769 3.89377 11.6629 3.72857 11.686C3.70804 11.686 3.68068 11.686 3.66016 11.6586C3.66016 11.6449 3.67384 11.6312 3.69436 11.6107L3.88591 11.5423H3.87907Z" fill="#5B4F40"/>
<path d="M4.41115 11.625C4.50693 11.6729 4.58218 11.7276 4.65059 11.796L4.67111 11.8371C4.65059 11.9397 4.57534 12.1244 4.46588 12.1791C4.44799 12.1878 4.43354 12.2023 4.42483 12.2202C4.41613 12.2381 4.40167 12.2525 4.38379 12.2612L4.17171 12.398C4.09646 12.4528 3.987 12.4733 3.91175 12.4323C3.79545 12.3638 3.69967 12.2681 3.62442 12.1449V12.0697C3.6381 12.056 3.65862 12.056 3.67231 12.0697C3.69967 12.0834 3.72019 12.0834 3.74072 12.0697C3.80913 12.056 3.80913 12.0355 3.74072 12.0218C3.68767 12.0081 3.63851 11.9823 3.59705 11.9465C3.57969 11.8911 3.57733 11.8321 3.59021 11.7755C3.59021 11.7345 3.61758 11.7003 3.65862 11.6592C3.67915 11.6797 3.70651 11.6934 3.72704 11.6866C3.89122 11.666 4.05541 11.6729 4.2196 11.7276C4.28801 11.7481 4.32906 11.7276 4.35642 11.6592L4.41115 11.625Z" fill="#0B0802"/>
<path d="M5.22016 12.3063C5.22016 12.2926 5.20648 12.2721 5.17227 12.2516C5.15859 12.2516 5.15175 12.2379 5.15859 12.2173C5.17227 12.1695 5.15859 12.1284 5.11754 12.0942L4.93967 11.8958C4.89451 11.8438 4.83054 11.8118 4.7618 11.8069C4.74128 11.8069 4.7276 11.8206 4.73444 11.8479L4.66603 11.8342L4.65234 11.7932C4.67293 11.7804 4.69654 11.7733 4.72076 11.7727C4.7276 11.7727 4.73444 11.7658 4.73444 11.7521C4.73444 11.7453 4.73444 11.7385 4.74812 11.7385C4.85074 11.7043 4.97388 11.6906 5.06281 11.7658C5.13122 11.8206 5.227 11.8411 5.28173 11.9095C5.33646 11.9779 5.37751 12.0463 5.39119 12.1353C5.39119 12.1558 5.39119 12.1695 5.37066 12.1763C5.30778 12.2056 5.25529 12.2533 5.22016 12.3131V12.3063Z" fill="#EFE2AD"/>
<path d="M3.58319 11.7779C3.57635 11.8394 3.58319 11.8942 3.59687 11.9489L3.62424 12.1336V12.1473C3.47373 12.2568 3.43953 12.3799 3.52162 12.503V12.5509C3.51478 12.5646 3.50794 12.5714 3.49426 12.5646C3.47461 12.5595 3.45755 12.5473 3.44637 12.5304C3.38794 12.4129 3.35307 12.285 3.34375 12.1541C3.34375 12.031 3.37111 11.86 3.47373 11.7779C3.54898 11.7095 3.59003 11.7095 3.58319 11.7779ZM5.21822 12.3115C5.21822 12.3936 5.19086 12.4483 5.14297 12.4894C5.12245 12.503 5.10877 12.5099 5.09508 12.503C5.06772 12.503 5.05404 12.4825 5.04035 12.4551H5.01299C4.99931 12.4551 4.99931 12.4688 5.00615 12.4757C5.01299 12.4962 5.03351 12.5167 5.05404 12.5304L5.07456 12.5509L5.0814 12.5783C5.0814 12.6193 5.04719 12.6467 4.98562 12.6604C4.91472 12.6816 4.84032 12.6886 4.76671 12.6809C4.74061 12.6745 4.71616 12.6626 4.69495 12.6461C4.67373 12.6296 4.65623 12.6088 4.64357 12.5851C4.63887 12.5718 4.63887 12.5574 4.64357 12.5441C4.65115 12.4919 4.65115 12.4389 4.64357 12.3867C4.64357 12.3252 4.67093 12.2704 4.71198 12.2294C4.72385 12.2189 4.73121 12.2042 4.7325 12.1883V11.8531C4.7325 11.8258 4.7325 11.8121 4.75987 11.8121C4.82828 11.8258 4.89669 11.8463 4.93774 11.901L5.11561 12.0994C5.15665 12.1336 5.17034 12.1747 5.15665 12.2225C5.14981 12.2431 5.15665 12.2499 5.17034 12.2568C5.20454 12.2773 5.22506 12.2978 5.21822 12.3115Z" fill="#FCF9F5"/>
<path d="M4.66934 11.8359C4.6967 11.8496 4.71722 11.8565 4.73091 11.8496V12.1848L4.71038 12.2259C4.66934 12.2669 4.64197 12.3217 4.64197 12.3832C4.64955 12.4354 4.64955 12.4884 4.64197 12.5406V12.5816C4.67618 12.6364 4.71038 12.6637 4.76511 12.6774C4.73091 12.6774 4.70354 12.6911 4.68986 12.7253C4.68986 12.739 4.67618 12.7527 4.6625 12.7595C4.63936 12.7735 4.62067 12.7938 4.60856 12.818C4.59646 12.8422 4.59144 12.8694 4.59408 12.8963L4.36148 12.8142L4.12889 12.7253C3.99673 12.6748 3.85057 12.6748 3.71842 12.7253C3.68421 12.7937 3.69105 12.8621 3.7321 12.9168C3.76661 12.9622 3.81445 12.9957 3.86892 13.0126C3.94417 13.0263 4.081 13.0468 4.13573 13.1015C4.14257 13.1152 4.15625 13.1221 4.17677 13.1221H4.38201C4.29307 13.2178 4.1973 13.2521 4.10836 13.2247C3.99666 13.1906 3.88888 13.1447 3.78683 13.0879C3.75295 13.071 3.72316 13.047 3.69953 13.0175C3.67589 12.9879 3.65899 12.9536 3.65001 12.9168C3.64741 12.9047 3.64278 12.8932 3.63632 12.8826C3.6273 12.8686 3.62141 12.8528 3.61905 12.8362C3.61669 12.8197 3.61791 12.8029 3.62264 12.7869L3.63632 12.6842L3.52002 12.4995C3.43793 12.3764 3.47214 12.2532 3.62264 12.1438C3.69105 12.2669 3.79367 12.3627 3.90997 12.4311C3.98522 12.4722 4.09468 12.4516 4.16993 12.3969L4.38201 12.2601C4.3999 12.2514 4.41435 12.2369 4.42306 12.219C4.43208 12.1974 4.44929 12.1802 4.47094 12.1712C4.56672 12.1233 4.64881 11.9386 4.66934 11.8359ZM3.59528 11.9454C3.65001 11.9864 3.69789 12.0138 3.73894 12.0138C3.80735 12.0343 3.80735 12.0549 3.73894 12.0754C3.71842 12.0822 3.69789 12.0754 3.67053 12.0685C3.65001 12.0549 3.63632 12.0549 3.62948 12.0685C3.62264 12.0822 3.6158 12.1027 3.62264 12.1301L3.59528 11.9454Z" fill="#968C78"/>
<path d="M4.2478 12.1612C4.30937 12.1886 4.3641 12.1954 4.37094 12.1817C4.37094 12.168 4.32989 12.1338 4.26832 12.1133C4.19991 12.0859 4.15202 12.0791 4.14518 12.0928C4.13834 12.1065 4.18623 12.1407 4.2478 12.1612Z" fill="#5B4F40"/>
<path d="M8.34494 12.3594C8.29082 12.4044 8.24963 12.4629 8.22559 12.529C8.20155 12.5952 8.19552 12.6665 8.20811 12.7357V12.7631L8.13286 12.893C8.11918 12.9067 8.1055 12.9136 8.09182 12.893L8.07129 12.8794L8.05761 12.8725H8.03709C8.00972 12.8862 7.99604 12.9067 8.00288 12.9341C8.00288 13.0093 8.0234 13.0914 8.03709 13.1735C8.04012 13.1921 8.0386 13.2112 8.03264 13.2291C8.02668 13.2469 8.01647 13.2631 8.00288 13.2761C7.91395 13.3651 7.72239 13.5293 7.71555 13.6593C7.71555 13.714 7.70187 13.755 7.67451 13.7824C7.63711 13.8231 7.59005 13.8537 7.53768 13.8713V13.8919C7.54452 13.9055 7.55821 13.9124 7.57873 13.9124C7.67451 13.8919 7.76344 13.844 7.84553 13.7687H7.85922L7.86606 13.7756V13.7892L7.74292 13.9945V14.0218C7.74292 14.0697 7.74292 14.1176 7.72923 14.1587C7.72685 14.165 7.72693 14.1721 7.72946 14.1784C7.73199 14.1847 7.73679 14.1899 7.74292 14.1929H7.77712C7.80541 14.1811 7.83547 14.1742 7.86606 14.1723C7.87056 14.1713 7.87521 14.1713 7.87974 14.1721C7.88427 14.173 7.88858 14.1747 7.89241 14.1773C7.89624 14.1798 7.89952 14.1831 7.90205 14.187C7.90457 14.1908 7.90629 14.1952 7.9071 14.1997C7.91272 14.2391 7.90812 14.2793 7.89374 14.3165C7.87937 14.3536 7.8557 14.3864 7.82501 14.4118C7.76344 14.4665 7.69503 14.5486 7.61978 14.6375C7.59795 14.6603 7.56896 14.6748 7.53768 14.6786L7.48979 14.6717C7.42634 14.619 7.34653 14.59 7.26404 14.5896C7.17693 14.5879 7.09098 14.5693 7.01091 14.5349C6.87409 14.487 6.73043 14.5349 6.60045 14.6033C6.57571 14.6179 6.54647 14.6227 6.51835 14.617C6.51107 14.6151 6.50428 14.6116 6.49839 14.6069C6.49251 14.6022 6.48766 14.5963 6.48415 14.5896C6.4811 14.5832 6.47953 14.5762 6.47953 14.5691C6.47953 14.562 6.4811 14.555 6.48415 14.5486C6.53888 14.3707 6.71675 14.3365 6.88777 14.3023C6.89278 14.3012 6.89735 14.2986 6.90098 14.295C6.90461 14.2914 6.90715 14.2868 6.9083 14.2818C6.90975 14.277 6.90988 14.272 6.90867 14.2672C6.90747 14.2623 6.90497 14.2579 6.90146 14.2544L6.76463 14.1381C6.75096 14.1277 6.73386 14.1228 6.71675 14.1244C6.6987 14.1242 6.68149 14.1168 6.66886 14.1039C6.62097 14.0697 6.62781 14.0355 6.68254 14.0013L6.95619 13.8303C7.04512 13.7619 7.09301 13.6935 7.10669 13.6045C7.12037 13.5156 7.12037 13.3924 7.19563 13.3309L7.53768 13.0504C7.64714 12.9546 7.71555 12.8178 7.79081 12.6946C7.7964 12.6866 7.79939 12.6771 7.79939 12.6673C7.79939 12.6575 7.7964 12.648 7.79081 12.6399C7.78866 12.6358 7.7857 12.6321 7.78209 12.6292C7.77848 12.6262 7.7743 12.624 7.76982 12.6227C7.76533 12.6215 7.76063 12.6211 7.756 12.6217C7.75138 12.6223 7.74692 12.6239 7.74292 12.6262C7.59241 12.6947 7.46927 12.7836 7.31193 12.8315C7.14774 12.8862 6.96987 12.9683 6.79884 13.0778C6.72359 13.1256 6.69622 13.2009 6.66202 13.283C6.65689 13.2971 6.64728 13.3091 6.63465 13.3172C6.53769 13.3698 6.44605 13.4317 6.36101 13.5019C6.26523 13.5908 6.12841 13.5908 6.05315 13.6935C5.98474 13.8029 5.91633 13.9534 5.77951 13.9808C5.54691 14.0218 5.34852 14.015 5.13644 13.9261L4.91068 13.8303C4.84227 13.8029 4.84227 13.7756 4.91068 13.755C5.0133 13.7208 5.11592 13.7003 5.21169 13.6387C5.33483 13.5635 5.47166 13.5019 5.62216 13.4745C5.73846 13.454 5.79319 13.3788 5.85476 13.2967C5.93686 13.2009 5.92317 13.0983 5.83424 13.0025C5.74806 12.9009 5.66591 12.7959 5.58796 12.6878V12.4552C5.629 12.5168 5.69057 12.5441 5.77951 12.5373C5.79804 12.5368 5.81631 12.5418 5.83209 12.5515C5.84788 12.5612 5.86051 12.5753 5.86844 12.592C5.88897 12.6399 5.91633 12.6741 5.95738 12.7015C5.96638 12.7074 5.97665 12.7111 5.98734 12.7123C5.99804 12.7135 6.00887 12.7121 6.01895 12.7083C6.14211 12.6739 6.27363 12.6861 6.38837 12.7425C6.40889 12.7562 6.43626 12.7562 6.45678 12.7562C6.48415 12.7562 6.51151 12.7425 6.52519 12.7357C6.73043 12.6262 6.94934 12.5305 7.18194 12.4278C7.36665 12.3594 7.55821 12.3252 7.7566 12.3389H8.05077C8.14654 12.3389 8.24916 12.3389 8.34494 12.3594Z" fill="#E7CF90"/>
<path d="M4.59442 12.9013C4.68335 12.9492 4.88174 13.0381 4.98436 13.0039C5.04593 12.9834 5.10066 12.9629 5.16223 12.9629C5.32514 12.9603 5.48667 12.9326 5.64111 12.8808C5.64434 12.8817 5.64728 12.8835 5.64967 12.8859C5.65205 12.8883 5.65381 12.8912 5.65479 12.8944V12.9081C5.65602 12.9145 5.65538 12.9212 5.65295 12.9272C5.65053 12.9333 5.64642 12.9385 5.64111 12.9423C5.44956 13.0244 5.31958 13.0655 5.25117 13.0792C5.09382 13.0928 4.99804 13.1134 4.95016 13.127L4.73808 13.0313L4.51232 12.9629C4.23868 12.915 3.97871 12.8329 3.71875 12.7234C3.85557 12.6755 3.9924 12.6755 4.12922 12.7234C4.28407 12.7833 4.43914 12.8426 4.59442 12.9013Z" fill="#0B0802"/>
<path d="M3.72112 12.7266C3.98108 12.836 4.24789 12.9181 4.51469 12.9728C4.60363 12.9865 4.67888 13.0139 4.74045 13.0413L4.95253 13.1302C4.88411 13.1986 4.8157 13.2191 4.72677 13.1918C4.56258 13.1439 4.45312 13.1233 4.38471 13.1233H4.17948C4.15895 13.1233 4.14527 13.1165 4.13843 13.1028C4.0837 13.0481 3.94688 13.0344 3.87162 13.0139C3.81715 12.997 3.76932 12.9635 3.7348 12.9181C3.69376 12.8634 3.68691 12.8018 3.72112 12.7266Z" fill="#5B4F40"/>
<path d="M8.39365 14.3982L8.00371 14.6376H7.95582L7.94898 14.6171C7.94658 14.6129 7.94531 14.6082 7.94531 14.6034C7.94531 14.5986 7.94658 14.5939 7.94898 14.5897L8.13369 14.3229C8.16105 14.2887 8.1679 14.2545 8.17474 14.2135C8.17474 14.1929 8.16105 14.1793 8.14053 14.1793C8.00371 14.1793 8.01739 14.063 8.00371 13.9603C8.00371 13.9193 8.01739 13.8782 8.04475 13.8577C8.24999 13.7004 8.41418 13.5157 8.551 13.3104C8.66046 13.1394 8.83833 13.0505 8.96831 12.9136C8.97075 12.9107 8.97397 12.9085 8.9776 12.9073C8.98122 12.9061 8.98511 12.9059 8.98883 12.9068H9.00936V12.9205C9.01684 13.0421 8.97769 13.162 8.8999 13.2557C8.81096 13.3583 8.76992 13.4678 8.69466 13.5772C8.68663 13.5918 8.68419 13.6089 8.68782 13.6251C8.71519 13.7551 8.68782 13.8577 8.61941 13.9398C8.57792 13.9821 8.5433 14.0305 8.51679 14.0835C8.46891 14.1861 8.4347 14.2887 8.40734 14.3982H8.39365Z" fill="#B87C29"/>
<path d="M3.58849 13.9005C3.54744 13.9073 3.54744 13.9416 3.58849 14.0031L3.6569 14.0715C3.86213 14.2426 3.97159 14.4136 4.24524 14.5162C4.25467 14.5196 4.26324 14.5251 4.27033 14.5322C4.27742 14.5393 4.28287 14.5478 4.28628 14.5573L4.34101 14.6804C4.36838 14.783 4.43679 14.8651 4.53257 14.9472C4.53949 14.9519 4.54741 14.955 4.55571 14.9562C4.56402 14.9574 4.57248 14.9566 4.58045 14.954C4.58773 14.9521 4.59453 14.9486 4.60041 14.9439C4.6063 14.9392 4.61115 14.9333 4.61466 14.9267L4.62834 14.913C4.63091 14.9101 4.63407 14.9078 4.63761 14.9062C4.64114 14.9046 4.64498 14.9037 4.64886 14.9037C4.65275 14.9037 4.65658 14.9046 4.66012 14.9062C4.66366 14.9078 4.66682 14.9101 4.66939 14.913C4.79937 15.0225 4.84726 15.3029 4.8883 15.474L4.89515 15.4945C4.899 15.4989 4.90373 15.5024 4.90904 15.5048C4.91435 15.5071 4.92011 15.5084 4.92593 15.5084C4.93175 15.5084 4.93751 15.5071 4.94282 15.5048C4.94813 15.5024 4.95286 15.4989 4.95672 15.4945C5.07302 15.3714 5.14827 15.2345 5.17563 15.0635C5.17563 15.0498 5.18931 15.043 5.20984 15.043H5.22352C5.22656 15.0443 5.22899 15.0468 5.23036 15.0498V15.1251C5.23036 15.1456 5.23036 15.1524 5.25089 15.1524C5.29718 15.0707 5.34279 14.9886 5.38771 14.9062C5.40823 14.8514 5.45612 14.8104 5.52453 14.7693C5.66135 14.7078 5.79818 14.653 5.91448 14.5641C6.01363 14.4839 6.12149 14.415 6.23601 14.3589C6.23689 14.3551 6.23672 14.3513 6.23551 14.3476C6.2343 14.344 6.23211 14.3408 6.22917 14.3383H6.2018C6.29758 14.2973 6.36599 14.2699 6.40704 14.2426C6.50966 14.1742 6.5507 14.2084 6.5165 14.3247C6.50281 14.3931 6.46861 14.4752 6.4344 14.5504C6.40909 14.6063 6.36572 14.6521 6.31126 14.6804C6.15392 14.7625 6.05814 14.9062 5.90079 14.9746C5.72292 15.0567 5.57926 15.2003 5.52453 15.385C5.4698 15.5492 5.36718 15.686 5.27141 15.8297C5.19616 15.946 4.99776 16.117 4.83358 16.1649C4.78327 16.1793 4.73499 16.2 4.68991 16.2265C4.68529 16.2301 4.67982 16.2325 4.67402 16.2334C4.66821 16.2343 4.66228 16.2337 4.65678 16.2316C4.65128 16.2296 4.6464 16.2261 4.64262 16.2216C4.63884 16.2171 4.63628 16.2117 4.63518 16.206C4.61384 16.1534 4.60002 16.0982 4.59414 16.0418C4.57361 15.8365 4.51204 15.6313 4.41627 15.4124C4.3834 15.3403 4.33695 15.2753 4.27944 15.2208C4.06053 15.0156 3.84845 14.7967 3.62953 14.5709C3.53376 14.4752 3.49271 14.3657 3.4243 14.2494C3.35712 14.0969 3.33344 13.9288 3.35589 13.7637L3.36957 13.75H3.40378L3.58849 13.9005Z" fill="#E1B051"/>
<path d="M3.58938 13.8984L3.79461 14.0421L3.93144 14.1584C4.06826 14.3021 4.32822 14.3636 4.52662 14.4184C4.64292 14.4457 4.80026 14.4526 4.98497 14.4526C5.4043 14.4449 5.82261 14.4083 6.2369 14.3431C6.2387 14.3462 6.23965 14.3498 6.23965 14.3534C6.23965 14.357 6.2387 14.3605 6.2369 14.3636H6.22322C6.1206 14.4184 6.01799 14.4799 5.91537 14.562C5.79907 14.651 5.6554 14.7057 5.52542 14.7673C5.46537 14.7957 5.41702 14.844 5.3886 14.9041L5.27914 15.1298C5.27914 15.1435 5.26546 15.1504 5.25178 15.1504C5.2381 15.1504 5.22441 15.1435 5.23125 15.123V15.0546C5.23161 15.0519 5.23114 15.0491 5.22992 15.0467C5.2287 15.0443 5.22679 15.0422 5.22441 15.0409H5.21073C5.19021 15.0409 5.17652 15.0409 5.17652 15.0614C5.14916 15.2325 5.07391 15.3693 4.95761 15.4924L4.93708 15.5061C4.93169 15.5071 4.92615 15.507 4.92079 15.5058C4.91544 15.5046 4.91038 15.5023 4.90592 15.4991C4.90145 15.4959 4.89767 15.4919 4.8948 15.4872C4.89193 15.4825 4.89002 15.4773 4.8892 15.4719C4.84815 15.3009 4.80026 15.0204 4.67028 14.9109L4.64976 14.9041H4.62923L4.61555 14.9246C4.61204 14.9313 4.60719 14.9372 4.6013 14.9419C4.59542 14.9466 4.58862 14.95 4.58135 14.952C4.57337 14.9546 4.56491 14.9553 4.5566 14.9541C4.5483 14.9529 4.54038 14.9499 4.53346 14.9451C4.44529 14.8765 4.37879 14.7838 4.3419 14.6783C4.32581 14.6364 4.30755 14.5953 4.28718 14.5552C4.28376 14.5458 4.27832 14.5372 4.27122 14.5301C4.26413 14.523 4.25556 14.5176 4.24613 14.5141C3.97248 14.4115 3.86302 14.2405 3.65779 14.0695C3.63228 14.0495 3.60931 14.0266 3.58938 14.0011C3.54833 13.9395 3.54833 13.9053 3.58938 13.8984Z" fill="#B87C29"/>
<path d="M9.55367 14.0496C9.56736 14.1522 9.58104 14.248 9.6084 14.337C9.63577 14.4738 9.62893 14.5901 9.63577 14.7269C9.63577 14.8637 9.68366 15.0348 9.6905 15.1921V15.5068C9.67681 15.6983 9.29371 15.9994 9.08848 16.1704C8.91745 16.3209 8.75326 16.3825 8.60276 16.3688C8.52066 16.314 8.39752 16.314 8.25386 16.3688C8.20597 16.3825 8.20597 16.3688 8.23333 16.3414C8.30174 16.273 8.34963 16.1977 8.377 16.0951L8.4112 16.0541C8.46259 16.0113 8.52028 15.9767 8.58223 15.9515C8.6438 15.9241 8.69853 15.8899 8.71905 15.8283C8.74642 15.7052 8.94481 15.5273 9.03375 15.4452C9.08164 15.3973 9.08848 15.3494 9.11584 15.2947C9.1227 15.2795 9.13486 15.2674 9.15005 15.2605C9.21846 15.2263 9.25266 15.1716 9.2595 15.1032L9.29371 14.6927C9.29855 14.5971 9.32423 14.5037 9.36896 14.419C9.43737 14.3096 9.42369 14.2138 9.4579 14.1044C9.4921 13.9949 9.52631 13.9812 9.55367 14.0496Z" fill="#C89539"/>
<path d="M8.58309 15.9534C8.52109 15.9785 8.46338 16.0131 8.41206 16.056C8.39672 16.0659 8.38478 16.0802 8.37785 16.0971C8.35144 16.1885 8.30466 16.2727 8.24103 16.3434C8.20682 16.3776 8.20682 16.3844 8.25471 16.3707C8.40522 16.316 8.52152 16.316 8.60361 16.3707C8.60361 16.4186 8.58993 16.4597 8.55572 16.5076C8.52408 16.5407 8.4838 16.5644 8.43942 16.576C8.24787 16.6375 8.07 16.7128 7.91266 16.788C7.78951 16.8496 7.65953 16.8564 7.52955 16.8907C7.4885 16.9043 7.44746 16.8907 7.41325 16.9249C7.40666 16.9304 7.399 16.9344 7.39075 16.9368C7.38251 16.9391 7.37386 16.9397 7.36536 16.9385C7.26979 16.9264 7.17292 16.9287 7.07804 16.9454C6.99594 16.9591 6.90701 16.9727 6.82491 16.9727C6.2571 16.9727 5.66192 16.9933 5.08726 16.9385C5.00776 16.9333 4.93052 16.9099 4.86151 16.8701C4.78317 16.8189 4.70563 16.7664 4.62891 16.7128C4.76573 16.6854 4.90255 16.6307 5.02569 16.6033C5.14883 16.5828 5.27197 16.5623 5.37459 16.4939C5.44984 16.4391 5.53194 16.4049 5.61403 16.3844C5.88768 16.3228 5.99713 16.0697 6.22973 15.9397C6.29815 15.9055 6.36656 15.8713 6.43497 15.8508L7.18749 15.5772C7.42009 15.4814 7.6048 15.3856 7.74163 15.3035C7.85793 15.2214 7.92634 15.0778 8.0358 14.982C8.1863 14.8452 8.32997 14.7973 8.50099 14.722C8.59597 14.6819 8.69927 14.6655 8.802 14.6741C8.81764 14.676 8.83214 14.6833 8.84305 14.6946C8.85673 14.7015 8.86357 14.7152 8.86357 14.7289C8.89094 14.9615 8.93883 15.2077 8.80885 15.413L8.70623 15.6182C8.69255 15.6387 8.67886 15.6935 8.66518 15.7892C8.65235 15.8501 8.62408 15.9066 8.58309 15.9534Z" fill="#E7CF90"/>
</g>
</g>
</g>
<defs>
<clipPath id="clip0_1005_10440">
<rect width="12.3141" height="12.3141" fill="white" transform="translate(6.27734 0.554688)"/>
</clipPath>
<clipPath id="clip1_1005_10440">
<rect width="12.3141" height="12.3141" fill="white" transform="translate(6.27734 0.554688)"/>
</clipPath>
<clipPath id="clip2_1005_10440">
<rect width="12.3141" height="12.3141" fill="white" transform="translate(6.27734 0.554688)"/>
</clipPath>
<clipPath id="clip3_1005_10440">
<rect x="0.117188" y="6.71875" width="12.3141" height="12.3141" rx="6.15703" fill="white"/>
</clipPath>
<clipPath id="clip4_1005_10440">
<rect width="12.3141" height="12.3141" fill="white" transform="translate(0.117188 6.71875)"/>
</clipPath>
<clipPath id="clip5_1005_10440">
<rect width="12.3141" height="12.3141" fill="white" transform="translate(0.117188 6.71875)"/>
</clipPath>
</defs>
</svg>
