<svg width="19" height="19" viewBox="0 0 19 19" fill="none" xmlns="http://www.w3.org/2000/svg">
<mask id="mask0_1005_10431" style="mask-type:alpha" maskUnits="userSpaceOnUse" x="6" y="0" width="13" height="13">
<g clip-path="url(#clip0_1005_10431)">
<path d="M18.8564 6.67502C18.826 5.19798 18.2659 3.78102 17.2782 2.68241C16.2904 1.58381 14.9408 0.876717 13.4753 0.690027C12.0098 0.503338 10.526 0.849482 9.29437 1.66536C8.06274 2.48125 7.1653 3.71254 6.76562 5.1348C8.72844 5.19285 10.5949 5.99851 11.9835 7.38703C13.372 8.77556 14.1776 10.6421 14.2357 12.6049C15.5523 12.2649 16.7195 11.499 17.5553 10.4264C18.3911 9.35377 18.8485 8.03479 18.8564 6.67502Z" fill="black"/>
</g>
</mask>
<g mask="url(#mask0_1005_10431)">
<g clip-path="url(#clip1_1005_10431)">
<g clip-path="url(#clip2_1005_10431)">
<path d="M6.53125 0.515625H18.8453V12.8297H6.53125V0.515625Z" fill="#009393"/>
<path d="M16.7953 6.3319L12.6906 10.4366L8.58594 6.3319L10.1526 3.9375H15.2287L16.7953 6.3319ZM13.149 6.67396V6.28401C13.9699 6.32506 14.5035 6.48925 14.743 6.69448C14.4693 6.94076 13.7168 7.11863 12.6906 7.11863C11.6645 7.11863 10.9119 6.94076 10.6383 6.69448C10.8777 6.48925 11.4045 6.32506 12.2323 6.28401V6.67396H13.149ZM10.6383 6.69448V7.03654C10.8777 7.24177 11.4045 7.40596 12.2323 7.44701V8.7263H13.149V7.44701C13.9699 7.40596 14.5035 7.24177 14.743 7.03654V6.35242C14.5035 6.14719 13.9768 5.983 13.149 5.94196V5.30573H14.4009V4.62161H10.9803V5.30573H12.2323V5.94196C11.4113 5.983 10.8777 6.14719 10.6383 6.35242V6.69448Z" fill="white"/>
</g>
</g>
</g>
<g clip-path="url(#clip3_1005_10431)">
<g clip-path="url(#clip4_1005_10431)">
<g clip-path="url(#clip5_1005_10431)">
<path d="M0.371094 6.67969H12.6852V18.9937H0.371094V6.67969Z" fill="url(#paint0_linear_1005_10431)"/>
<path d="M6.50787 8.82812V11.6056L3.86719 12.9054L6.50787 8.82812Z" fill="#E7F0FF"/>
<path d="M3.86231 12.9014L3.85547 12.9287L6.51667 14.4406V11.6016L3.86231 12.9014Z" fill="#A5B9EE"/>
<path d="M6.50781 8.82424V11.6017L9.20322 12.9358L6.52834 8.79688L6.51465 8.8174L6.50781 8.82424Z" fill="#A5B8F0"/>
<path d="M9.19638 12.9346L6.52834 14.4533H6.50781V11.5938L9.20322 12.9278L9.19638 12.9346Z" fill="#687FCB"/>
<path fill-rule="evenodd" clip-rule="evenodd" d="M6.52943 8.73438L9.26588 12.9417L6.52943 14.5015L3.79297 12.9417L6.52943 8.73438ZM6.48154 8.95329L3.97084 12.8254L6.48154 11.5666V8.95329ZM6.48154 11.6487L3.93663 12.9348L6.48154 14.3852V11.6487ZM6.57047 14.3852V11.6487L9.12222 12.9348L6.57047 14.3852ZM9.08801 12.8322L6.57047 11.5666V8.95329L9.08801 12.8391V12.8322Z" fill="white"/>
<path d="M6.52647 16.8757L3.82422 13.3594L6.52647 14.8371L9.22872 13.3594L6.52647 16.8757Z" fill="#A8B9EF"/>
<path d="M6.52647 14.8371L3.82422 13.3594L6.52647 16.8757V14.8371Z" fill="#E8F1FF"/>
<path fill-rule="evenodd" clip-rule="evenodd" d="M3.79297 13.3829L3.85454 13.3281L6.52943 14.7921L9.20431 13.3281L9.26588 13.3829L6.52943 16.9402L3.79297 13.3829ZM6.48838 14.8537L3.97768 13.4855L6.48838 16.7487V14.8537ZM6.57047 16.7487V14.8537L9.08117 13.4855L6.57047 16.7487Z" fill="white"/>
</g>
</g>
</g>
<defs>
<linearGradient id="paint0_linear_1005_10431" x1="6.52812" y1="6.67969" x2="6.52812" y2="18.9937" gradientUnits="userSpaceOnUse">
<stop stop-color="#465191"/>
<stop offset="0.36" stop-color="#32498F"/>
<stop offset="0.7" stop-color="#555E99"/>
<stop offset="1" stop-color="#4F5795"/>
</linearGradient>
<clipPath id="clip0_1005_10431">
<rect width="12.3141" height="12.3141" fill="white" transform="translate(6.53125 0.515625)"/>
</clipPath>
<clipPath id="clip1_1005_10431">
<rect width="12.3141" height="12.3141" fill="white" transform="translate(6.53125 0.515625)"/>
</clipPath>
<clipPath id="clip2_1005_10431">
<rect width="12.3141" height="12.3141" fill="white" transform="translate(6.53125 0.515625)"/>
</clipPath>
<clipPath id="clip3_1005_10431">
<rect x="0.371094" y="6.67969" width="12.3141" height="12.3141" rx="6.15703" fill="white"/>
</clipPath>
<clipPath id="clip4_1005_10431">
<rect width="12.3141" height="12.3141" fill="white" transform="translate(0.371094 6.67969)"/>
</clipPath>
<clipPath id="clip5_1005_10431">
<rect width="12.3141" height="12.3141" fill="white" transform="translate(0.371094 6.67969)"/>
</clipPath>
</defs>
</svg>
