<svg width="19" height="20" viewBox="0 0 19 20" fill="none" xmlns="http://www.w3.org/2000/svg">
<mask id="mask0_1005_10442" style="mask-type:alpha" maskUnits="userSpaceOnUse" x="6" y="0" width="13" height="13">
<g clip-path="url(#clip0_1005_10442)">
<path d="M18.7665 6.71408C18.7362 5.23704 18.1761 3.82008 17.1883 2.72147C16.2006 1.62287 14.851 0.915779 13.3855 0.72909C11.92 0.542401 10.4362 0.888544 9.20452 1.70443C7.9729 2.52031 7.07545 3.7516 6.67578 5.17386C8.63859 5.23191 10.5051 6.03757 11.8936 7.4261C13.2821 8.81462 14.0878 10.6811 14.1458 12.6439C15.4625 12.304 16.6296 11.538 17.4654 10.4654C18.3012 9.39284 18.7587 8.07385 18.7665 6.71408Z" fill="black"/>
</g>
</mask>
<g mask="url(#mask0_1005_10442)">
<g clip-path="url(#clip1_1005_10442)">
<g clip-path="url(#clip2_1005_10442)">
<path d="M6.44531 0.554688H18.7594V12.8687H6.44531V0.554688Z" fill="#009393"/>
<path d="M16.7055 6.37096L12.6008 10.4757L8.49609 6.37096L10.0627 3.97656H15.1388L16.7055 6.37096ZM13.0591 6.71302V6.32308C13.8801 6.36412 14.4137 6.52831 14.6531 6.73354C14.3795 6.97983 13.627 7.15769 12.6008 7.15769C11.5746 7.15769 10.8221 6.97983 10.5484 6.73354C10.7879 6.52831 11.3146 6.36412 12.1424 6.32308V6.71302H13.0591ZM10.5484 6.73354V7.0756C10.7879 7.28084 11.3146 7.44502 12.1424 7.48607V8.76536H13.0591V7.48607C13.8801 7.44502 14.4137 7.28084 14.6531 7.0756V6.39149C14.4137 6.18625 13.8869 6.02206 13.0591 5.98102V5.34479H14.3111V4.66068H10.8905V5.34479H12.1424V5.98102C11.3215 6.02206 10.7879 6.18625 10.5484 6.39149V6.73354Z" fill="white"/>
</g>
</g>
</g>
<g clip-path="url(#clip3_1005_10442)">
<g clip-path="url(#clip4_1005_10442)">
<g clip-path="url(#clip5_1005_10442)">
<path d="M0.285156 6.71875H12.5992V19.0328H0.285156V6.71875Z" fill="#FC1E1F"/>
<path d="M3.49219 13.9198C3.49219 13.287 3.80278 12.5345 3.95807 12.2369C3.72068 11.4864 3.33553 9.91429 3.69126 9.63723C4.047 9.35879 4.90694 10.2817 5.29209 10.7783C5.44944 10.6942 5.89548 10.5266 6.42157 10.5266C6.94765 10.5266 7.44226 10.6942 7.62424 10.7783C8.65999 9.61055 9.09372 9.53051 9.1806 9.63654C9.5466 10.1024 9.16486 11.5644 8.92885 12.2375C9.0814 12.4838 9.38652 13.1659 9.38652 13.9205C9.38652 14.8625 8.04086 16.2129 6.41609 16.2129C4.79064 16.2129 3.49219 14.7106 3.49219 13.9198Z" fill="#EB9A2E"/>
<path d="M5.37134 12.5053C5.18526 12.5395 5.01355 12.5422 4.8993 12.5361C4.86984 12.5353 4.84169 12.5238 4.82023 12.5036C4.79877 12.4834 4.78552 12.456 4.783 12.4266C4.76863 12.233 4.84115 11.9744 5.05938 11.9847C5.32071 11.997 5.43564 12.192 5.47532 12.3527C5.49311 12.4246 5.44249 12.4916 5.37134 12.5053ZM7.51741 12.5053C7.70348 12.5395 7.8752 12.5422 7.98944 12.5361C8.0189 12.5353 8.04706 12.5238 8.06851 12.5036C8.08997 12.4834 8.10323 12.456 8.10574 12.4266C8.12079 12.233 8.04759 11.9744 7.82936 11.9847C7.56803 11.997 7.4531 12.192 7.41342 12.3527C7.39563 12.4246 7.44557 12.4916 7.51741 12.5053Z" fill="#FEFFF7"/>
<path d="M6.25684 16.1818C4.02115 15.8383 3.48207 14.5331 3.49233 13.9228C4.6478 13.8366 5.0439 14.2875 5.09726 14.5228C5.12805 14.1636 5.42906 13.4453 6.38477 13.4453C7.34047 13.4453 7.64148 14.1636 7.67227 14.5228C7.8739 14.2644 8.15099 14.0751 8.46507 13.9813C8.77916 13.8875 9.11465 13.8939 9.42497 13.9994C8.87768 15.8308 7.0853 16.2173 6.25752 16.1818H6.25684Z" fill="#EAEAE8"/>
<path d="M4.73342 12.7687C4.61917 12.7236 4.61712 12.8296 4.63081 12.8877V12.9774C4.63089 13.0573 4.65511 13.1353 4.70027 13.2012C4.74543 13.2671 4.80945 13.3179 4.88393 13.3468C5.23077 13.4788 5.81638 13.6601 5.75275 13.4699C5.66792 13.2189 4.8764 12.8255 4.73342 12.7687ZM8.12731 12.7687C8.24156 12.7236 8.24361 12.8296 8.22993 12.8877V12.9774C8.22975 13.0572 8.2055 13.1352 8.16035 13.2011C8.1152 13.267 8.05124 13.3178 7.97681 13.3468C7.62996 13.4788 7.04436 13.6601 7.10798 13.4699C7.19281 13.2189 7.98365 12.8255 8.12731 12.7687Z" fill="black"/>
<path fill-rule="evenodd" clip-rule="evenodd" d="M5.292 10.6365C5.05245 10.3351 4.78516 10.0568 4.49364 9.80528C4.33424 9.67324 4.17142 9.56105 4.0216 9.50153C3.87314 9.44201 3.71648 9.42559 3.59334 9.52069C3.53124 9.57285 3.48621 9.64243 3.46404 9.72045C3.43805 9.80117 3.423 9.89695 3.41821 10.0009C3.40726 10.2089 3.43121 10.4634 3.47294 10.7288C3.55435 11.2453 3.70759 11.8166 3.82799 12.199C3.66312 12.5205 3.35938 13.2655 3.35938 13.9024C3.35938 14.1214 3.44968 14.3813 3.60292 14.6413C3.75753 14.9033 3.97987 15.1735 4.2542 15.4178C4.80149 15.9048 5.56359 16.2941 6.41463 16.2941C7.26293 16.2941 8.03598 15.9452 8.59627 15.4766C9.15382 15.01 9.51641 14.4121 9.51641 13.9024C9.51641 13.1547 9.22429 12.4781 9.05805 12.1969C9.17845 11.8535 9.32896 11.3295 9.40763 10.8294C9.44868 10.5701 9.47057 10.3149 9.45826 10.0919C9.44526 9.87164 9.39874 9.67051 9.28996 9.53368L9.28859 9.53232C9.24071 9.47553 9.16272 9.46185 9.08062 9.47417C8.99648 9.48785 8.89044 9.52958 8.75909 9.60962C8.50255 9.7656 8.13449 10.0748 7.62346 10.6399C7.24003 10.4884 6.83232 10.4078 6.4201 10.4018C5.92412 10.4018 5.49586 10.5434 5.292 10.6365ZM3.96482 9.6493C3.83483 9.59731 3.7459 9.60278 3.68707 9.64725C3.65033 9.6802 3.62415 9.72328 3.61181 9.77107C3.59129 9.83401 3.57829 9.91405 3.5735 10.0098C3.56393 10.2014 3.58513 10.4429 3.62618 10.7035C3.70827 11.2234 3.86562 11.8049 3.98602 12.1812L3.99629 12.214L3.98055 12.2441C3.82457 12.5397 3.51535 13.284 3.51535 13.9024C3.51535 14.0817 3.59061 14.3115 3.73632 14.5592C3.88135 14.8055 4.09343 15.0634 4.35613 15.298C4.8829 15.7667 5.61011 16.1347 6.41463 16.1347C7.2212 16.1347 7.96073 15.8029 8.49776 15.3534C9.03821 14.9006 9.36043 14.343 9.36043 13.9024C9.36043 13.1615 9.05668 12.4884 8.90686 12.2489L8.88634 12.2161L8.90002 12.1792C9.01905 11.8433 9.17435 11.3103 9.25439 10.8041C9.29407 10.551 9.31459 10.3081 9.30228 10.1008C9.29065 9.89284 9.24755 9.73413 9.17024 9.63562C9.16819 9.63425 9.15314 9.62399 9.10457 9.63151C9.04779 9.64041 8.9609 9.67256 8.83913 9.74644C8.5949 9.89421 8.22685 10.2021 7.70145 10.7884L7.66382 10.8308L7.61251 10.8075C7.23436 10.6502 6.82963 10.5666 6.4201 10.5612C5.89812 10.5612 5.45619 10.7261 5.30636 10.8055L5.24958 10.8356L5.2099 10.7842C4.96677 10.4734 4.69388 10.187 4.39512 9.9291C4.2412 9.80049 4.09275 9.70061 3.96413 9.6493H3.96482Z" fill="black"/>
<path fill-rule="evenodd" clip-rule="evenodd" d="M6.73082 13.7891H6.11101C6.09029 13.7892 6.06981 13.7935 6.05074 13.8016C6.03168 13.8097 6.0144 13.8215 5.99991 13.8364C5.98541 13.8512 5.97399 13.8687 5.96629 13.8879C5.95859 13.9072 5.95476 13.9277 5.95504 13.9485V14.2563C5.96461 14.3589 6.05902 14.5546 6.35866 14.5813V14.8754H5.75391V15.0889H7.12214V14.8754H6.49617V14.5813C6.79718 14.556 6.88269 14.3589 6.88612 14.2563V13.9485C6.88648 13.9068 6.87035 13.8668 6.84124 13.837C6.81214 13.8073 6.77243 13.7903 6.73082 13.7897V13.7891Z" fill="black"/>
</g>
</g>
</g>
<defs>
<clipPath id="clip0_1005_10442">
<rect width="12.3141" height="12.3141" fill="white" transform="translate(6.44531 0.554688)"/>
</clipPath>
<clipPath id="clip1_1005_10442">
<rect width="12.3141" height="12.3141" fill="white" transform="translate(6.44531 0.554688)"/>
</clipPath>
<clipPath id="clip2_1005_10442">
<rect width="12.3141" height="12.3141" fill="white" transform="translate(6.44531 0.554688)"/>
</clipPath>
<clipPath id="clip3_1005_10442">
<rect x="0.285156" y="6.71875" width="12.3141" height="12.3141" rx="6.15703" fill="white"/>
</clipPath>
<clipPath id="clip4_1005_10442">
<rect width="12.3141" height="12.3141" fill="white" transform="translate(0.285156 6.71875)"/>
</clipPath>
<clipPath id="clip5_1005_10442">
<rect width="12.3141" height="12.3141" fill="white" transform="translate(0.285156 6.71875)"/>
</clipPath>
</defs>
</svg>
