<svg width="20" height="20" viewBox="0 0 20 20" fill="none" xmlns="http://www.w3.org/2000/svg">
<mask id="mask0_1005_10436" style="mask-type:alpha" maskUnits="userSpaceOnUse" x="6" y="0" width="14" height="13">
<g clip-path="url(#clip0_1005_10436)">
<path d="M19.0595 6.71408C19.0291 5.23704 18.4691 3.82008 17.4813 2.72147C16.4936 1.62287 15.1439 0.915779 13.6784 0.72909C12.2129 0.542401 10.7291 0.888544 9.49749 1.70443C8.26586 2.52031 7.36842 3.7516 6.96875 5.17386C8.93156 5.23191 10.7981 6.03757 12.1866 7.4261C13.5751 8.81462 14.3808 10.6811 14.4388 12.6439C15.7554 12.304 16.9226 11.538 17.7584 10.4654C18.5942 9.39284 19.0517 8.07385 19.0595 6.71408Z" fill="black"/>
</g>
</mask>
<g mask="url(#mask0_1005_10436)">
<g clip-path="url(#clip1_1005_10436)">
<g clip-path="url(#clip2_1005_10436)">
<path d="M6.73438 0.554688H19.0484V12.8687H6.73438V0.554688Z" fill="#009393"/>
<path d="M16.9984 6.37096L12.8937 10.4757L8.78906 6.37096L10.3557 3.97656H15.4318L16.9984 6.37096ZM13.3521 6.71302V6.32308C14.173 6.36412 14.7067 6.52831 14.9461 6.73354C14.6724 6.97983 13.9199 7.15769 12.8937 7.15769C11.8676 7.15769 11.1151 6.97983 10.8414 6.73354C11.0808 6.52831 11.6076 6.36412 12.4354 6.32308V6.71302H13.3521ZM10.8414 6.73354V7.0756C11.0808 7.28084 11.6076 7.44502 12.4354 7.48607V8.76536H13.3521V7.48607C14.173 7.44502 14.7067 7.28084 14.9461 7.0756V6.39149C14.7067 6.18625 14.1799 6.02206 13.3521 5.98102V5.34479H14.604V4.66068H11.1835V5.34479H12.4354V5.98102C11.6145 6.02206 11.0808 6.18625 10.8414 6.39149V6.73354Z" fill="white"/>
</g>
</g>
</g>
<g clip-path="url(#clip3_1005_10436)">
<g clip-path="url(#clip4_1005_10436)">
<g clip-path="url(#clip5_1005_10436)">
<path d="M0.574219 6.71875H12.8883V19.0328H0.574219V6.71875Z" fill="url(#paint0_linear_1005_10436)"/>
<path d="M9.15005 9.45312H10.1406L8.08078 11.9638C7.73393 12.3859 7.23726 12.6315 6.73307 12.6315C6.22888 12.6315 5.73221 12.3859 5.38537 11.9645L3.32276 9.45312H4.3161L5.87793 11.3769C6.33629 11.931 7.12917 11.931 7.58685 11.3769L9.15005 9.45312ZM4.30241 16.2902H3.3125L5.38537 13.7863C5.7329 13.3649 6.22956 13.1193 6.73444 13.1193C7.23932 13.1193 7.73667 13.3656 8.0842 13.787L10.1536 16.2943H9.16373L7.59027 14.3787C7.1326 13.8232 6.33971 13.8232 5.88203 14.3787L4.30241 16.2902Z" fill="white"/>
</g>
</g>
</g>
<defs>
<linearGradient id="paint0_linear_1005_10436" x1="2.86532" y1="8.85456" x2="15.5591" y2="23.4344" gradientUnits="userSpaceOnUse">
<stop stop-color="#1A1E21"/>
<stop offset="1" stop-color="#06060A"/>
</linearGradient>
<clipPath id="clip0_1005_10436">
<rect width="12.3141" height="12.3141" fill="white" transform="translate(6.73438 0.554688)"/>
</clipPath>
<clipPath id="clip1_1005_10436">
<rect width="12.3141" height="12.3141" fill="white" transform="translate(6.73438 0.554688)"/>
</clipPath>
<clipPath id="clip2_1005_10436">
<rect width="12.3141" height="12.3141" fill="white" transform="translate(6.73438 0.554688)"/>
</clipPath>
<clipPath id="clip3_1005_10436">
<rect x="0.574219" y="6.71875" width="12.3141" height="12.3141" rx="6.15703" fill="white"/>
</clipPath>
<clipPath id="clip4_1005_10436">
<rect width="12.3141" height="12.3141" fill="white" transform="translate(0.574219 6.71875)"/>
</clipPath>
<clipPath id="clip5_1005_10436">
<rect width="12.3141" height="12.3141" fill="white" transform="translate(0.574219 6.71875)"/>
</clipPath>
</defs>
</svg>
