<?xml version="1.0" standalone="no"?>
<!DOCTYPE svg PUBLIC "-//W3C//DTD SVG 20010904//EN"
 "http://www.w3.org/TR/2001/REC-SVG-20010904/DTD/svg10.dtd">
<svg version="1.0" xmlns="http://www.w3.org/2000/svg"
 width="46.000000pt" height="46.000000pt" viewBox="0 0 46.000000 46.000000"
 preserveAspectRatio="xMidYMid meet">

<g transform="translate(0.000000,46.000000) scale(0.100000,-0.100000)"
fill="#000000" stroke="none">
<path d="M88 313 c-43 -43 -78 -83 -78 -88 0 -6 36 -46 80 -90 l80 -80 0 58
c0 31 3 57 7 57 4 0 33 -26 65 -57 l58 -57 40 39 c22 21 40 44 40 50 0 6 -16
26 -35 45 l-35 34 36 37 36 37 -20 29 c-11 15 -29 37 -41 47 l-22 20 -57 -57
c-32 -31 -61 -57 -64 -57 -4 0 -8 25 -10 55 l-3 56 -77 -78z"/>
<path d="M200 25 l24 -25 23 22 c13 12 23 23 23 25 0 2 -21 3 -47 3 l-46 0 23
-25z"/>
</g>
</svg>
